<?xml version="1.0" encoding="UTF-8" standalone="no"?><!DOCTYPE svg PUBLIC "-//W3C//DTD SVG 1.1//EN" "http://www.w3.org/Graphics/SVG/1.1/DTD/svg11.dtd"><svg width="100%" height="100%" viewBox="0 0 130 130" version="1.1" xmlns="http://www.w3.org/2000/svg" xmlns:xlink="http://www.w3.org/1999/xlink" xml:space="preserve" xmlns:serif="http://www.serif.com/" style="fill-rule:evenodd;clip-rule:evenodd;stroke-linejoin:round;stroke-miterlimit:2;"><rect id="Artboard1" x="0" y="0" width="129.5" height="129.5" style="fill:none;"/><path d="M12.484,54.82l-3.488,-2.7l33.411,-12.565l36.333,0l-4.386,4.387l-31.993,0l-29.877,10.878m37.427,26.244l-36.347,-13.308l-4.823,3.376l41.057,15.41l37.155,0l10.799,-5.478l-47.841,0Z" style="fill:#9d9fa2;fill-rule:nonzero;"/><path d="M65.441,57.671l-6.411,-6.409l6.411,-6.412l6.411,6.412l-6.411,6.409m6.411,14.264l-6.411,-6.414l-6.411,6.414l6.411,6.41l6.411,-6.41m14.257,-10.399l-10.334,-10.336l-10.331,10.336l10.331,10.333l10.334,-10.333m-41.461,-0l10.332,10.333l10.335,-10.333l-10.335,-10.336l-10.332,10.336m-27.359,4.982l-0,-3.486l25.457,0l-0,-2.868l-25.457,-0l-0,-3.483l-8.519,-4.921l-8.52,4.921l-0,9.837l8.52,4.918l8.519,-4.918m25.562,-28.876l48.067,-0l0,-9.049l-45.245,-2.508l-39.269,21.913l1.076,2.553l35.371,-12.909m42.751,51.295l-35.096,0l-42.971,-15.748l-1.202,3.195l48.606,27.031l37.683,-2.214l36.628,-28.575l0,-6.297l-43.648,22.608Z" style="fill:#fff;fill-rule:nonzero;"/></svg>