<?xml version="1.0" encoding="UTF-8" standalone="no"?><!DOCTYPE svg PUBLIC "-//W3C//DTD SVG 1.1//EN" "http://www.w3.org/Graphics/SVG/1.1/DTD/svg11.dtd"><svg width="100%" height="100%" viewBox="0 0 17 17" version="1.1" xmlns="http://www.w3.org/2000/svg" xmlns:xlink="http://www.w3.org/1999/xlink" xml:space="preserve" xmlns:serif="http://www.serif.com/" style="fill-rule:evenodd;clip-rule:evenodd;stroke-linejoin:round;stroke-miterlimit:2;"><rect id="Artboard1" x="0" y="0" width="16.5" height="16.5" style="fill:none;"/><path d="M1.322,4.25l6.928,-4l6.928,4l0,8l-6.928,4l-6.928,-4l-0,-8Z" style="fill:#fff;fill-rule:nonzero;"/><path d="M1.87,4.606l6.38,-3.644l6.38,3.644l-0,7.288l-6.38,3.644l-6.38,-3.644l0,-7.288Z" style="fill:#231f20;fill-rule:nonzero;"/><path d="M2.256,4.826l5.994,-3.424l5.994,3.424l0,6.848l-5.994,3.424l-5.994,-3.424l-0,-6.848Z" style="fill:#8d8d8d;fill-rule:nonzero;"/><path d="M12.677,6.038l0,-0.756l-8.854,0l-0,0.756c-0.939,0.187 -1.653,1.019 -1.653,2.006c0,0.988 0.714,1.82 1.653,2.007l-0,0.218c-0,0.523 0.426,0.949 0.949,0.949l2.685,-0c0.331,-0 0.623,-0.171 0.793,-0.429c0.17,0.258 0.462,0.429 0.793,0.429l2.685,-0c0.524,-0 0.949,-0.426 0.949,-0.949l0,-0.218c0.939,-0.187 1.653,-1.019 1.653,-2.007c-0,-0.987 -0.714,-1.819 -1.653,-2.006m-8.854,1.369l-0,1.275c-0.216,-0.136 -0.368,-0.367 -0.368,-0.638c-0,-0.27 0.152,-0.501 0.368,-0.637m3.838,2.862c-0,0.11 -0.093,0.203 -0.204,0.203l-2.685,0c-0.11,0 -0.204,-0.093 -0.204,-0.203l0,-4.241l3.093,-0l-0,4.241m5.384,-2.225c0,0.271 -0.152,0.502 -0.368,0.638l0,-1.275c0.216,0.136 0.368,0.367 0.368,0.637m-1.113,2.225c-0,0.11 -0.093,0.203 -0.204,0.203l-2.685,0c-0.11,0 -0.204,-0.093 -0.204,-0.203l0,-4.241l3.093,-0l-0,4.241Z" style="fill:#231f20;fill-rule:nonzero;"/><path d="M4.196,6.368c-0.915,0.014 -1.653,0.758 -1.653,1.676c-0,0.919 0.738,1.663 1.653,1.677l-0,0.548c-0,0.317 0.259,0.576 0.576,0.576l2.685,0c0.317,0 0.577,-0.259 0.577,-0.576l-0,-4.614l-3.838,-0l-0,0.713m-0,0.986l-0,1.827c-0.617,-0.013 -1.114,-0.516 -1.114,-1.137c-0,-0.62 0.497,-1.123 1.114,-1.137l-0,0.447m8.109,-0.986l-0,-0.713l-3.838,-0l-0,4.614c-0,0.317 0.259,0.576 0.576,0.576l2.685,0c0.317,0 0.577,-0.259 0.577,-0.576l-0,-0.548c0.915,-0.014 1.652,-0.758 1.652,-1.677c0,-0.918 -0.737,-1.662 -1.652,-1.676m-0,2.813l-0,-2.274c0.616,0.014 1.113,0.517 1.113,1.137c0,0.621 -0.497,1.124 -1.113,1.137Z" style="fill:#fff;fill-rule:nonzero;"/></svg>