<?xml version="1.0" encoding="UTF-8" standalone="no"?><!DOCTYPE svg PUBLIC "-//W3C//DTD SVG 1.1//EN" "http://www.w3.org/Graphics/SVG/1.1/DTD/svg11.dtd"><svg width="100%" height="100%" viewBox="0 0 130 130" version="1.1" xmlns="http://www.w3.org/2000/svg" xmlns:xlink="http://www.w3.org/1999/xlink" xml:space="preserve" xmlns:serif="http://www.serif.com/" style="fill-rule:evenodd;clip-rule:evenodd;stroke-linejoin:round;stroke-miterlimit:2;"><rect id="Artboard1" x="0" y="0" width="129.5" height="129.5" style="fill:none;"/><clipPath id="_clip1"><rect x="0" y="0" width="129.5" height="129.5"/></clipPath><g clip-path="url(#_clip1)"><path d="M91.876,1.753l-54.255,0l1.242,-1.253l51.771,-0l1.242,1.253m-47.878,15.749l41.501,0l4.011,-4.05l-49.522,-0l4.01,4.05m50.103,-13.501l-58.704,-0l-10.311,10.415l10.675,-0l3.915,-3.955l10.541,0l3.342,-3.375l22.38,-0l3.341,3.375l10.541,0l3.917,3.955l10.676,-0l-10.313,-10.415Z" style="fill:#fff;fill-rule:nonzero;"/><path d="M37.62,128.246l54.255,0l-1.241,1.254l-51.772,0l-1.242,-1.254m47.879,-15.748l-41.501,-0l-4.011,4.05l49.523,0l-4.011,-4.05m-50.103,13.502l58.705,0l10.313,-10.417l-10.678,0l-3.916,3.955l-10.54,0l-3.341,3.376l-22.381,0l-3.342,-3.376l-10.541,0l-3.915,-3.955l-10.674,0l10.31,10.417Z" style="fill:#fff;fill-rule:nonzero;"/><g opacity="0.13"><path d="M42.456,18.997l2.585,-0l-0,92.054l-2.585,-0l-2.46,2.411l-11.379,-0l0,-96.876l11.379,-0l2.46,2.411m4.437,91.956l35.711,0l0,-91.86l-35.711,-0l0,91.86m42.608,-94.367l-2.461,2.411l-2.582,-0l-0,92.054l2.582,-0l2.461,2.411l11.379,-0l0,-96.876l-11.379,-0Z" style="fill:#fff;fill-rule:nonzero;"/></g><path d="M45.041,18.418l-2.349,-0c-0.293,-0.287 -2.289,-2.246 -2.289,-2.246c-0.109,-0.105 -0.255,-0.165 -0.407,-0.165l-11.379,-0c-0.32,-0 -0.579,0.26 -0.579,0.579l-0,96.876c-0,0.319 0.259,0.578 0.579,0.578l11.379,-0c0.152,-0 0.298,-0.059 0.407,-0.165c-0,-0 1.996,-1.959 2.289,-2.246l2.349,-0c0.32,-0 0.578,-0.258 0.578,-0.578l0,-92.054c0,-0.32 -0.258,-0.579 -0.578,-0.579m-0.578,92.053l-2.007,0c-0.15,0 -0.297,0.06 -0.404,0.167c0,-0 -1.999,1.957 -2.292,2.245l-10.564,0l-0,-95.718l10.564,0c0.293,0.286 2.291,2.245 2.291,2.245c0.108,0.106 0.255,0.165 0.405,0.165l2.007,0l-0,90.896m38.141,-91.956l-35.711,0c-0.321,0 -0.579,0.259 -0.579,0.578l-0,91.86c-0,0.321 0.258,0.58 0.579,0.58l35.711,-0c0.32,-0 0.578,-0.259 0.578,-0.58l-0,-91.86c-0,-0.319 -0.258,-0.578 -0.578,-0.578m-0.578,91.861l-34.555,0l0,-90.704l34.555,0l0,90.704m18.854,-94.369l-11.379,-0c-0.152,-0 -0.296,0.06 -0.406,0.165c-0,-0 -1.997,1.959 -2.291,2.246l-2.346,-0c-0.322,-0 -0.58,0.259 -0.58,0.579l0,92.054c0,0.32 0.258,0.578 0.58,0.578l2.346,-0c0.294,0.287 2.291,2.246 2.291,2.246c0.11,0.106 0.254,0.165 0.406,0.165l11.379,-0c0.321,-0 0.579,-0.259 0.579,-0.578l-0,-96.876c-0,-0.319 -0.258,-0.579 -0.579,-0.579m-0.577,96.876l-10.567,0c-0.293,-0.288 -2.289,-2.245 -2.289,-2.245c-0.111,-0.107 -0.255,-0.167 -0.407,-0.167l-2.004,0l0,-90.896l2.004,0c0.152,0 0.296,-0.059 0.407,-0.165c-0,0 1.996,-1.959 2.289,-2.245l10.567,0l0,95.718Z" style="fill:#9d9fa2;fill-rule:nonzero;"/><path d="M64.809,48.529l-6.292,6.291l6.292,6.293l6.291,-6.291l-6.291,-6.293Z" style="fill:#fff;"/><path d="M64.807,81.402l6.295,-6.292l-6.289,-6.293l-6.296,6.293l6.29,6.292Z" style="fill:#fff;"/><path d="M85.095,64.904l-10.142,-10.144l-10.143,10.142l10.143,10.144l10.142,-10.142Z" style="fill:#fff;"/><path d="M54.544,54.761l-10.143,10.142l10.141,10.142l10.143,-10.142l-10.141,-10.142Z" style="fill:#fff;"/></g></svg>