<?xml version="1.0" encoding="UTF-8" standalone="no"?><!DOCTYPE svg PUBLIC "-//W3C//DTD SVG 1.1//EN" "http://www.w3.org/Graphics/SVG/1.1/DTD/svg11.dtd"><svg width="100%" height="100%" viewBox="0 0 130 130" version="1.1" xmlns="http://www.w3.org/2000/svg" xmlns:xlink="http://www.w3.org/1999/xlink" xml:space="preserve" xmlns:serif="http://www.serif.com/" style="fill-rule:evenodd;clip-rule:evenodd;stroke-linejoin:round;stroke-miterlimit:2;"><rect id="Artboard1" x="0" y="0" width="129.5" height="129.5" style="fill:none;"/><path d="M77.857,55.289l50.636,-30.097l-19.237,0l-31.87,15.817l-3.543,-0l-6.49,-25.46l-5.206,-0l-6.492,25.46l-3.542,-0l-31.867,-15.817l-19.237,0l50.631,30.097l26.217,0Z" style="fill:#9d9fa2;fill-rule:nonzero;"/><path d="M52.044,78.742l-49.217,27.737l31.466,0l-0,-0.908l-4.249,-2.006l23.533,-11.603l3.542,0l5.429,17.67l4.403,0l5.431,-17.67l3.54,0l23.534,11.603l-4.247,2.006l0,0.908l31.464,0l-49.217,-27.737l-25.412,0Z" style="fill:#9d9fa2;fill-rule:nonzero;"/><path d="M64.782,64.863l-3.524,-3.528l3.524,-3.525l3.529,3.525l-3.529,3.528m3.529,7.846l-3.529,-3.527l-3.524,3.527l3.524,3.527l3.529,-3.527m7.846,-5.719l-5.688,-5.687l-5.685,5.687l5.685,5.683l5.688,-5.683m-22.812,-0l5.683,5.683l5.687,-5.683l-5.687,-5.687l-5.683,5.687m-10.357,14.102l-40.129,24.715l30.926,-0l-8.618,-6.964l3.057,-1.888l10.164,0l12.239,-5.785l-2.798,-10.078l-4.841,0m-10.572,-42.021l6.256,3.703l0,8.285l3.613,1.949l4.278,0l3.123,-10.732l-29.644,-14.81l-19.792,-0l19.313,11.605l12.853,-0m17.893,41.951l9.322,32.929l10.238,0l9.324,-32.929l-28.884,-0m31.362,0.07l-2.796,10.078l12.237,5.785l10.164,0l3.058,1.888l-8.617,6.964l30.924,-0l-40.129,-24.715l-4.841,0m-1.658,-27.986l-10.038,-34.797l-10.448,0l-10.043,34.797l30.529,0m7.204,-0.098l3.613,-1.949l-0,-8.285l6.254,-3.703l12.855,-0l19.311,-11.605l-19.792,-0l-29.644,14.81l3.126,10.732l4.277,0Z" style="fill:#fff;fill-rule:nonzero;"/></svg>