<?xml version="1.0" encoding="UTF-8" standalone="no"?><!DOCTYPE svg PUBLIC "-//W3C//DTD SVG 1.1//EN" "http://www.w3.org/Graphics/SVG/1.1/DTD/svg11.dtd"><svg width="100%" height="100%" viewBox="0 0 130 130" version="1.1" xmlns="http://www.w3.org/2000/svg" xmlns:xlink="http://www.w3.org/1999/xlink" xml:space="preserve" xmlns:serif="http://www.serif.com/" style="fill-rule:evenodd;clip-rule:evenodd;stroke-linejoin:round;stroke-miterlimit:2;"><rect id="Artboard1" x="0" y="0" width="129.5" height="129.5" style="fill:none;"/><path d="M28.742,77.35l6.167,7.655l-0.426,8.717l-25.942,-19.774l20.201,3.402m5.53,-46.038l-5.316,-22.752l-7.763,-5.848l5.317,22.54l7.762,6.06m38.947,24.88l-5.953,7.017l-0.803,9.068l-3.424,-0l-0.805,-9.068l-5.953,-7.017l-1.702,-29.451l-4.998,4.677l1.489,29.877l5.633,1.381l2.801,31.543l5.245,-12.399l5.245,12.399l2.802,-31.543l5.633,-1.381l1.489,-29.877l-4.998,-4.677l-1.701,29.451m27.539,21.158l-6.167,7.655l0.425,8.717l25.943,-19.774l-20.201,3.402m7.547,-74.638l-7.761,5.848l-5.317,22.752l7.761,-6.06l5.317,-22.54Z" style="fill:#9d9fa2;fill-rule:nonzero;"/><path d="M59.121,58.604l5.593,-5.594l5.595,5.594l-5.595,5.595l-5.593,-5.595m5.593,12.445l-5.593,5.596l5.593,5.597l5.595,-5.597l-5.595,-5.596m9.019,-12.499l-9.017,9.02l9.017,9.018l9.021,-9.018l-9.021,-9.02m-9.129,9.02l-9.019,-9.02l-9.019,9.02l9.019,9.018l9.019,-9.018m-2.262,-27.965l-1.066,-17.118l-5.526,-6.514l1.7,28.842l4.892,-5.21m-2.447,69.852l-3.405,-28.173l-3.507,18.924l6.912,9.249m-8.398,-7.335l-3.829,0l-3.187,-4.253l0.211,-6.592l-7.549,-9.781l-0.64,14.14l13.611,15.522l9.676,2.339l-8.293,-11.375m-5.955,-21.902l-31.581,-39.764l-8.503,-4.996l-5.208,3.508l10.312,6.06l34.447,42.954l0.533,-7.762m0.106,-3.297l-10.313,-41.996l-7.975,-6.06l8.401,35.723l9.887,12.333m28.101,-60.95l-5.526,6.514l-1.065,17.118l4.892,5.21l1.699,-28.842m-4.145,93.484l6.912,-9.249l-3.509,-18.924l-3.403,28.173m-4.784,17.331l12.013,-12.894l-8.398,1.943l-3.615,10.951m-12.154,-12.894l12.013,12.894l-3.614,-10.951l-8.399,-1.943m32.14,-22.617l0.213,6.592l-3.188,4.253l-3.829,0l-8.293,11.375l9.676,-2.339l13.61,-15.522l-0.639,-14.14l-7.55,9.781m39.233,-55.817l-8.505,4.996l-31.576,39.764l0.533,7.762l34.445,-42.954l10.314,-6.06l-5.211,-3.508m-21.901,-6.593l-7.974,6.06l-10.312,41.996l9.887,-12.333l8.399,-35.723Z" style="fill:#fff;fill-rule:nonzero;"/></svg>