<?xml version="1.0" encoding="UTF-8" standalone="no"?><!DOCTYPE svg PUBLIC "-//W3C//DTD SVG 1.1//EN" "http://www.w3.org/Graphics/SVG/1.1/DTD/svg11.dtd"><svg width="100%" height="100%" viewBox="0 0 130 130" version="1.1" xmlns="http://www.w3.org/2000/svg" xmlns:xlink="http://www.w3.org/1999/xlink" xml:space="preserve" xmlns:serif="http://www.serif.com/" style="fill-rule:evenodd;clip-rule:evenodd;stroke-linejoin:round;stroke-miterlimit:2;"><rect id="Artboard1" x="0" y="0" width="129.5" height="129.5" style="fill:none;"/><path d="M65.225,63.713l-5.766,-5.768l5.766,-5.766l5.769,5.766l-5.769,5.768m0,7.061l-5.766,5.767l5.766,5.771l5.769,-5.771l-5.769,-5.767m18.597,-3.586l-9.297,-9.298l-9.297,9.298l9.297,9.296l9.297,-9.296m-37.302,0l9.297,9.296l9.294,-9.296l-9.294,-9.298l-9.297,9.298m42.996,2.476l23.887,0.453l-0,7.322l4.138,0l0,-11.458l-28.025,-0.304l0,3.987m-4.438,-21.431l3.26,-10.037l6.331,1.886l1.147,-3.527l-9.81,-3.308l-6.234,18.775l44.971,0.83l0,21.064l4.139,-0l0,-24.821l-43.804,-0.862m4.747,-24.036l1.333,-3.915l-10.847,-3.697l-9.326,26.429l3.771,1.287l8.138,-22.467l6.931,2.363m-19.31,-18.971l19.784,7.249l1.338,-3.916l-23.346,-8.309l-15.251,41.335l-8.449,-6.326l3.83,-5.381l-3.12,-2.373l-6.297,8.217l15.914,12.109l15.597,-42.605m-25.902,42.992l-18.85,-14.83l4.233,-5.71l-3.16,-2.631l-6.865,9.174l22.253,17.036l2.389,-3.039m-17.917,25.743l-3.939,-5.301l-2.877,2.439l5.72,8.223l16.39,-11.293l-35.957,-27.92l12.925,-16.561l-3.314,-2.478l-15.026,19.87l34.701,26.942l-8.623,6.079m-5.518,16.834l-4.307,-5.921l-3.345,2.435l6.742,9.265l22.838,-16.242l-2.343,-3.224l-19.585,13.687m0.985,20.634l-12.391,-17.034l-3.348,2.436l14.301,20.221l36.08,-25.222l3.268,10.034l-6.074,2.2l1.299,3.676l9.725,-3.247l-6.003,-18.85l-36.857,25.786m49.473,-22.113l-3.779,1.275l7.219,22.777l-6.936,2.344l1.321,3.919l10.859,-3.668l-8.684,-26.647m25.901,-3.613l3.706,-0.042l-0.006,-10.049l-19.784,0.103l13.61,42.872l-19.956,6.744l1.325,3.919l23.515,-7.946l-13.205,-41.774l10.553,-0.124l0.242,6.297Z" style="fill:#fff;fill-rule:nonzero;"/><path d="M122.705,54.028l-0.534,18.549l-4.67,-4.937l0,-8.861l-21.202,-0l-2.418,-3.016l-12.277,-0.151l0.668,-2.652l40.433,1.068m-34.933,-41.274l-17.386,-6.489l-14.055,37.931l2.292,1.487l4.105,-11.574l3.636,-1.318l6.991,-20.066l8.083,2.555l6.334,-2.526m-47.123,49.496l-9.434,-7.329l-0.434,-4.015l-16.97,-12.705l5.004,-6.943l-0.779,-6.751l-11.241,14.681l31.881,24.482l1.973,-1.42m2.169,28.327l-3.731,-0.713l-17.144,12.322l-4.909,-6.864l-7.134,-1.244l10.933,15.314l32.575,-23.228l-0.417,-2.688l-10.173,7.101m34.721,-11.206l3.637,11.226l-1.781,3.711l6.331,20.086l-7.639,2.383l-3.334,6.458l17.592,-5.733l-12.083,-38.5l-2.723,0.369Z" style="fill:#9d9fa2;fill-rule:nonzero;"/></svg>