<?xml version="1.0" encoding="UTF-8" standalone="no"?><!DOCTYPE svg PUBLIC "-//W3C//DTD SVG 1.1//EN" "http://www.w3.org/Graphics/SVG/1.1/DTD/svg11.dtd"><svg width="100%" height="100%" viewBox="0 0 130 130" version="1.1" xmlns="http://www.w3.org/2000/svg" xmlns:xlink="http://www.w3.org/1999/xlink" xml:space="preserve" xmlns:serif="http://www.serif.com/" style="fill-rule:evenodd;clip-rule:evenodd;stroke-linejoin:round;stroke-miterlimit:2;"><rect id="Artboard1" x="0" y="0" width="129.5" height="129.5" style="fill:none;"/><path d="M67.931,59.669l-3.151,3.15l-3.15,-3.15l3.15,-3.151l3.151,3.151m-3.151,13.313l3.151,-3.151l-3.151,-3.152l-3.15,3.152l3.15,3.151m5.081,-13.343l-5.078,5.081l5.078,5.08l5.08,-5.08l-5.08,-5.081m-10.222,10.161l5.081,-5.08l-5.081,-5.081l-5.08,5.081l5.08,5.08m-3.268,-17.588l-14.62,-24.837l0,-13.211l10.393,-7.75l25.212,0l10.393,7.75l-0,13.211l-14.62,24.837l2.642,0l14.619,-23.868l0,-15.389l-13.189,-12.705l-24.902,0l-13.189,12.705l0,15.389l14.619,23.868l2.642,0m31.114,-32.916l-0,-1.144l-10.284,-7.621l-24.902,-0l-10.284,7.621l0,1.144l11.451,-6.188l22.568,-0l11.451,6.188m-14.356,57.992l14.62,24.837l-0,13.211l-10.393,7.75l-25.212,-0l-10.393,-7.75l0,-13.211l14.62,-24.837l-2.642,-0l-14.619,23.868l0,15.388l13.189,12.706l24.902,0l13.189,-12.706l0,-15.388l-14.619,-23.868l-2.642,-0m-31.114,32.916l0,1.145l10.284,7.62l24.902,0l10.284,-7.62l-0,-1.145l-11.451,6.188l-22.568,0l-11.451,-6.188m10.197,-37.075l-24.835,14.62l-13.213,-0l-7.75,-10.393l0,-25.212l7.75,-10.393l13.213,0l24.835,14.62l0,-2.642l-23.868,-14.619l-15.388,0l-12.706,13.187l-0,24.906l12.706,13.187l15.388,0l23.868,-14.619l0,-2.642m-32.916,-31.112l-1.143,-0l-7.622,10.28l-0,24.906l7.622,10.281l1.143,-0l-6.188,-11.449l-0,-22.57l6.188,-11.448m97.248,-2.907l-15.388,0l-23.868,14.619l-0,2.642l24.835,-14.62l13.213,0l7.75,10.393l-0,25.212l-7.75,10.393l-13.213,-0l-24.835,-14.62l-0,2.642l23.868,14.619l15.388,0l12.706,-13.187l0,-24.906l-12.706,-13.187m-6.34,48.374l1.143,-0l7.622,-10.281l0,-24.906l-7.622,-10.28l-1.143,-0l6.188,11.448l0,22.57l-6.188,11.449Z" style="fill:#fff;fill-rule:nonzero;"/><path d="M58.51,53.358l-14.469,-25.607l0,-7.045l4.404,-2.402l-0,9.048l10.13,22.922l12.35,-0l10.13,-22.922l0,-9.048l4.404,2.402l-0,7.045l-14.469,25.607l-12.48,-0m0,22.784l-14.469,25.607l0,7.046l4.404,2.401l-0,-9.048l10.13,-22.922l12.35,0l10.13,22.922l0,9.048l4.404,-2.401l-0,-7.046l-14.469,-25.607l-12.48,0m-5.153,-17.634l-25.606,-14.467l-7.046,0l-2.401,4.404l9.048,-0l22.923,10.127l-0,12.356l-22.923,10.127l-9.048,0l2.401,4.404l7.046,-0l25.606,-14.467l-0,-12.484m25.868,12.42l0,-12.356l22.923,-10.127l9.048,-0l-2.401,-4.404l-7.046,0l-25.606,14.467l0,12.484l25.606,14.467l7.046,-0l2.401,-4.404l-9.048,0l-22.923,-10.127Z" style="fill:#9d9fa2;fill-rule:nonzero;"/></svg>