<?xml version="1.0" encoding="UTF-8" standalone="no"?><!DOCTYPE svg PUBLIC "-//W3C//DTD SVG 1.1//EN" "http://www.w3.org/Graphics/SVG/1.1/DTD/svg11.dtd"><svg width="100%" height="100%" viewBox="0 0 130 130" version="1.1" xmlns="http://www.w3.org/2000/svg" xmlns:xlink="http://www.w3.org/1999/xlink" xml:space="preserve" xmlns:serif="http://www.serif.com/" style="fill-rule:evenodd;clip-rule:evenodd;stroke-linejoin:round;stroke-miterlimit:2;"><rect id="Artboard1" x="0" y="0" width="129.5" height="129.5" style="fill:none;"/><path d="M125.581,94.022l2.403,0.101l-0,10.32l-1.098,1.005l-19.956,2.543l-26.107,-8.905l6.854,-0.933l4.621,1.808l4.243,0.866l27.631,-4.021l0.905,-0.804l0.504,-1.98m-30.096,-16.772l21.806,8.11l6.674,6.4l1.035,-0.071l-6.171,-9.014l-19.596,-6.732l-2.754,-2.051l-24.58,3.761l0.2,8.641l3.219,2.814l-0.102,-8.844l20.269,-3.014m-65.218,-1.307l-19.596,6.732l-6.17,9.014l1.034,0.071l6.673,-6.4l21.808,-8.11l20.268,3.014l-0.1,8.844l3.214,-2.814l0.2,-8.641l-24.578,-3.761l-2.753,2.051m6.933,24.018l-4.238,0.866l-27.637,-4.021l-0.904,-0.804l-0.501,-1.98l-2.401,0.101l-0,10.32l1.093,1.005l19.959,2.543l26.106,-8.905l-6.854,-0.933l-4.623,1.808m-32.779,-66.466l0.904,-0.802l27.637,-4.021l4.238,0.867l4.623,1.81l6.854,-0.937l-26.106,-8.903l-19.959,2.543l-1.093,1.003l-0,10.322l2.401,0.099l0.501,-1.981m49.763,6.895l0.1,8.845l-20.268,3.014l-21.808,-8.109l-6.673,-6.402l-1.034,0.071l6.17,9.014l19.596,6.732l2.753,2.05l24.578,-3.758l-0.2,-8.643l-3.214,-2.814m72.702,-16.338l-19.956,-2.543l-26.107,8.903l6.854,0.937l4.621,-1.81l4.243,-0.867l27.631,4.021l0.905,0.802l0.504,1.981l2.403,-0.099l-0,-10.322l-1.098,-1.003m-27.653,29.503l19.596,-6.732l6.171,-9.014l-1.035,-0.071l-6.674,6.402l-21.806,8.109l-20.269,-3.014l0.102,-8.845l-3.219,2.814l-0.2,8.643l24.58,3.758l2.754,-2.05Z" style="fill:#9d9fa2;fill-rule:nonzero;"/><path d="M64.782,62.777l-3.219,-3.216l3.219,-3.218l3.218,3.218l-3.218,3.216m-3.219,7.16l3.219,3.219l3.218,-3.219l-3.218,-3.217l-3.219,3.217m8.408,-10.407l-5.189,5.187l5.189,5.188l5.186,-5.188l-5.186,-5.187m-10.44,-0l-5.188,5.187l5.188,5.188l5.187,-5.188l-5.187,-5.187m38.095,38.018l2.31,0l23.215,-3.375l2.18,-1.246l-0.302,-1.709l-1.577,0.2l-0.504,1.107l-25.011,3.547l-1.858,-0.604l-4.031,0.071l5.578,2.009m-1.478,-27.103l3.497,5.408l18.48,7.025l8.441,8.711l2.684,-1.376l-0,-1.517l-9.286,-9.205l-23.816,-9.046m29.614,24.189l-0.905,0.805l-27.634,4.019l-2.711,-1.105l-6.633,0.602l-0.705,1.579l3.084,0.502l17.185,5.587l20.128,-2.542l1.61,-1.004l0,-10.322l-2.915,-0.1l-0.504,1.979m-44.828,-0.742l-7.426,-7.7l0,-7.404l-3.518,-3.99l-0,13.073l10.582,10.712l5.296,-0.934l3.285,-1.305l-8.219,-2.452m-24.941,-7.7l-7.427,7.7l-8.221,2.452l3.287,1.305l5.296,0.934l10.58,-10.712l-0,-13.073l-3.515,3.99l0,7.404m-24.429,9.88l-25.015,-3.547l-0.5,-1.107l-1.578,-0.2l-0.302,1.709l2.18,1.246l23.214,3.375l2.311,0l5.575,-2.009l-4.028,-0.071l-1.857,0.604m-20.19,-13.194l18.481,-7.025l3.495,-5.408l-23.816,9.046l-9.284,9.205l-0,1.517l2.683,1.376l8.441,-8.711m23.616,15.475l-2.713,1.105l-27.637,-4.019l-0.904,-0.805l-0.501,-1.979l-2.914,0.1l0,10.322l1.608,1.004l20.127,2.542l17.185,-5.587l3.085,-0.502l-0.703,-1.579l-6.633,-0.602m13.576,-62.746l7.427,7.699l0,7.405l3.515,3.99l-0,-13.073l-10.58,-10.714l-5.296,0.936l-3.287,1.305l8.221,2.452m-15.216,23.445l-3.495,-5.405l-18.481,-7.025l-8.441,-8.712l-2.683,1.376l-0,1.516l9.284,9.207l23.816,9.043m-1.476,-27.102l-2.311,0l-23.214,3.376l-2.18,1.246l0.302,1.709l1.578,-0.2l0.5,-1.107l25.015,-3.547l1.857,0.604l4.028,-0.071l-5.575,-2.01m-28.138,2.914l0.904,-0.804l27.637,-4.019l2.713,1.105l6.633,-0.603l0.703,-1.578l-3.085,-0.502l-17.185,-5.589l-20.127,2.543l-1.608,1.006l0,10.32l2.914,0.103l0.501,-1.982m119.212,2.11l0.504,1.107l1.577,0.2l0.302,-1.709l-2.18,-1.246l-23.215,-3.376l-2.31,0l-5.578,2.01l4.031,0.071l1.858,-0.604l25.011,3.547m-28.436,-5.828l2.711,-1.105l27.634,4.019l0.905,0.804l0.504,1.982l2.915,-0.103l0,-10.32l-1.61,-1.006l-20.128,-2.543l-17.185,5.589l-3.084,0.502l0.705,1.578l6.633,0.603m32.054,6.764l-8.441,8.712l-18.48,7.025l-3.497,5.405l23.816,-9.043l9.286,-9.207l-0,-1.516l-2.684,-1.376m-53.058,5.396l7.426,-7.699l8.219,-2.452l-3.285,-1.305l-5.296,-0.936l-10.582,10.714l-0,13.073l3.518,-3.99l0,-7.405Z" style="fill:#fff;fill-rule:nonzero;"/></svg>