<?xml version="1.0" encoding="UTF-8" standalone="no"?><!DOCTYPE svg PUBLIC "-//W3C//DTD SVG 1.1//EN" "http://www.w3.org/Graphics/SVG/1.1/DTD/svg11.dtd"><svg width="100%" height="100%" viewBox="0 0 130 130" version="1.1" xmlns="http://www.w3.org/2000/svg" xmlns:xlink="http://www.w3.org/1999/xlink" xml:space="preserve" xmlns:serif="http://www.serif.com/" style="fill-rule:evenodd;clip-rule:evenodd;stroke-linejoin:round;stroke-miterlimit:2;"><rect id="Artboard1" x="0" y="0" width="129.5" height="129.5" style="fill:none;"/><path d="M94.744,30.424l-5.776,-15.935l32.142,30.913l-26.366,-14.978m-9.998,-3.396l-35.993,-19.915l19.251,20.692l16.742,-0.777m34.551,28.534l2.735,-2.278l-31.057,-11.745l-54.58,-0.018l-9.155,3.625l63.962,-0.13l28.095,10.546m-34.777,23.909l-43.367,0.015l9.412,4.727l34.295,-0.371l37.042,-13.865l-4.203,-2.83l-33.179,12.324m4.063,31.268l31.721,-31.154l-25.819,14.624l-5.902,16.53m-49.273,11.648l37.963,-20.412l-22.179,-1.086l-15.784,21.498Z" style="fill:#9d9fa2;fill-rule:nonzero;"/><path d="M70.268,58.17l-5.826,-5.823l5.826,-5.826l5.828,5.826l-5.828,5.823m5.828,12.958l-5.828,-5.825l-5.826,5.825l5.826,5.827l5.828,-5.827m12.954,-9.447l-9.391,-9.392l-9.389,9.392l9.389,9.389l9.391,-9.389m-37.676,-0l9.39,9.389l9.389,-9.389l-9.389,-9.392l-9.39,9.392m70.448,-8.677l-7.683,4.436l0,2.911l-23.277,-0l-0,2.377l23.277,0l0,3.581l7.683,4.436l7.678,-4.436l0,-8.869l-7.678,-4.436m1.327,-1.487l0.776,-2.379l-36.008,-20.025l-41.218,2.248l-19.929,8.283l64.379,0.097l32,11.776m-39.42,35.316l-31.85,-0.116l-51.379,-26.608l2.75,4.785l42.174,32.908l34.582,1.924l43.793,-24.798l-1.018,-2.603l-39.052,14.508Z" style="fill:#fff;fill-rule:nonzero;"/></svg>