<?xml version="1.0" encoding="UTF-8" standalone="no"?><!DOCTYPE svg PUBLIC "-//W3C//DTD SVG 1.1//EN" "http://www.w3.org/Graphics/SVG/1.1/DTD/svg11.dtd"><svg width="100%" height="100%" viewBox="0 0 130 130" version="1.1" xmlns="http://www.w3.org/2000/svg" xmlns:xlink="http://www.w3.org/1999/xlink" xml:space="preserve" xmlns:serif="http://www.serif.com/" style="fill-rule:evenodd;clip-rule:evenodd;stroke-linejoin:round;stroke-miterlimit:2;"><rect id="Artboard1" x="0" y="0" width="129.5" height="129.5" style="fill:none;"/><path d="M87.201,66.069l-9.096,-9.095l9.096,-9.097l9.097,9.097l-9.097,9.095m42.049,-26.155l0,49.672l-90.764,-0c0,-0 -13.159,-12.934 -14.32,-14.072l-23.916,-0l-0,-12.585l36.044,0l0,-10.21l-36.044,-0l-0,-3.683l9.12,-9.122l59.589,0l4.091,6.894l-0.672,1.115c-1.617,2.692 -2.476,5.784 -2.476,8.941c-0,9.592 7.805,17.393 17.395,17.393c9.59,0 17.397,-7.801 17.397,-17.393c-0,-3.11 -0.837,-6.162 -2.416,-8.831l-0.655,-1.11l4.158,-7.009l23.469,0m-4.357,4.355l-16.634,0c-0.558,0.945 -1.085,1.83 -1.629,2.744c1.555,3.047 2.416,6.412 2.416,9.851c0,11.993 -9.755,21.748 -21.749,21.748c-11.993,0 -21.749,-9.755 -21.749,-21.748c-0,-3.494 0.884,-6.904 2.479,-9.98c-0.528,-0.893 -1.006,-1.698 -1.547,-2.615l-55.305,0l-4.094,4.093l33.567,0l0,18.923l-36.043,0l-0,3.871l21.344,0c-0,0 13.16,12.935 14.32,14.073l84.624,0l-0,-40.96Z" style="fill:#fff;fill-rule:nonzero;"/></svg>