<?xml version="1.0" encoding="UTF-8" standalone="no"?><!DOCTYPE svg PUBLIC "-//W3C//DTD SVG 1.1//EN" "http://www.w3.org/Graphics/SVG/1.1/DTD/svg11.dtd"><svg width="100%" height="100%" viewBox="0 0 130 130" version="1.1" xmlns="http://www.w3.org/2000/svg" xmlns:xlink="http://www.w3.org/1999/xlink" xml:space="preserve" xmlns:serif="http://www.serif.com/" style="fill-rule:evenodd;clip-rule:evenodd;stroke-linejoin:round;stroke-miterlimit:2;"><rect id="Artboard1" x="0" y="0" width="129.5" height="129.5" style="fill:none;"/><path d="M127.455,40.754l-117.856,-0c-0.482,-0 -0.944,0.195 -1.283,0.54l-6.307,6.444c-0.505,0.516 -1.159,1.454 -0.879,2.121c0.281,0.666 1.441,0.93 2.163,0.93c-0,-0 30.404,-0 1.518,-0l-0,12.908c28.875,-0 -2.765,-0 -2.765,-0c-0.992,-0 -1.796,0.804 -1.796,1.797l0,6.673c0,0.993 0.804,1.796 1.796,1.796l22.009,-0c0.977,0.962 14.495,14.268 14.495,14.268c0.337,0.331 0.79,0.515 1.26,0.515l87.645,0c0.991,0 1.795,-0.803 1.795,-1.795l0,-44.402c0,-0.994 -0.804,-1.795 -1.795,-1.795Z" style="fill:#fff;fill-opacity:0.13;fill-rule:nonzero;"/><path d="M75.655,48.004l-3.538,-5.455l-62.518,-0l-6.306,6.443l35.435,0l0,16.502l-36.682,0l0,6.673l22.747,0l15.017,14.784l23.251,0l10.273,-17.628c-1.189,-2.65 -1.855,-5.585 -1.855,-8.678c0,-4.736 1.553,-9.108 4.176,-12.641Z" style="fill:#9d9fa2;fill-rule:nonzero;"/><path d="M111.187,42.549l-2.426,4.161c3.246,3.73 5.215,8.603 5.215,13.935c0,11.737 -9.513,21.251 -21.249,21.251c-1.446,-0 -2.858,-0.147 -4.225,-0.424l-3.193,5.479l42.146,0l0,-44.402l-16.268,-0Z" style="fill:#9d9fa2;fill-rule:nonzero;"/><path d="M92.641,57.909l-4.916,-4.917l4.916,-4.917l4.917,4.917l-4.917,4.917m-4.916,10.94l4.916,4.917l4.917,-4.917l-4.917,-4.92l-4.916,4.92m20.769,-7.976l-7.925,-7.926l-7.926,7.926l7.926,7.927l7.925,-7.927m-15.949,-0l-7.927,-7.926l-7.926,7.926l7.926,7.927l7.927,-7.927m-17.574,7.716c0.236,0.528 0.204,1.139 -0.087,1.639l-10.273,17.628c-0.321,0.551 -0.914,0.89 -1.55,0.89l-23.251,0c-0.47,0 -0.923,-0.184 -1.26,-0.515c0,0 -13.518,-13.306 -14.495,-14.268l-22.009,-0c-0.992,-0 -1.796,-0.803 -1.796,-1.796l0,-6.673c0,-0.993 0.804,-1.797 1.796,-1.797l34.887,-0l0,-12.908l-33.64,-0c-0.722,-0 -1.882,-0.264 -2.163,-0.93c-0.28,-0.667 0.374,-1.605 0.879,-2.121l6.307,-6.444c0.339,-0.345 0.801,-0.54 1.283,-0.54l62.518,-0c0.608,-0 1.175,0.307 1.506,0.818l3.538,5.455c0.406,0.628 0.383,1.446 -0.066,2.046c-2.499,3.369 -3.821,7.372 -3.821,11.572c0,2.76 0.571,5.432 1.697,7.944m-3.623,0.574c-1.084,-2.715 -1.665,-5.572 -1.665,-8.518c0,-4.541 1.366,-8.858 3.845,-12.62c-0.689,-1.062 -1.78,-2.742 -2.388,-3.681l-60.785,-0c-0.428,0.438 -1.399,1.431 -2.79,2.852l31.163,0c0.991,0 1.796,0.804 1.796,1.796l-0,16.502c-0,0.992 -0.805,1.794 -1.796,1.794l-34.547,-0c0,1.213 -0.339,1.871 -0.339,3.083l20.951,0c0.47,0 0.923,0.186 1.26,0.518c-0,-0 13.515,13.305 14.492,14.267l21.483,0c0.895,-1.536 8.566,-14.7 9.32,-15.993m57.902,-26.614l0,44.402c0,0.992 -0.804,1.795 -1.795,1.795l-42.146,0c-0.643,0 -1.237,-0.343 -1.557,-0.9c-0.32,-0.557 -0.318,-1.245 0.006,-1.799l3.193,-5.478c0.385,-0.662 1.151,-1.007 1.905,-0.856c1.271,0.256 2.573,0.386 3.871,0.386c10.728,0 19.454,-8.726 19.454,-19.454c0,-4.686 -1.695,-9.219 -4.775,-12.756c-0.504,-0.581 -0.583,-1.418 -0.196,-2.085l2.425,-4.161c0.322,-0.55 0.913,-0.889 1.552,-0.889l16.268,-0c0.991,-0 1.795,0.801 1.795,1.795m-3.591,1.795l-13.441,-0c-0.434,0.744 -0.801,1.374 -1.29,2.212c3.122,4.028 4.846,8.974 4.846,14.089c-0,12.707 -10.34,23.044 -23.047,23.044c-1.099,0 -2.197,-0.105 -3.285,-0.261c-0.313,0.535 0.004,0.863 -0.5,1.728l36.717,0l-0,-40.812Z" style="fill:#fff;fill-rule:nonzero;"/></svg>