<?xml version="1.0" encoding="UTF-8" standalone="no"?><!DOCTYPE svg PUBLIC "-//W3C//DTD SVG 1.1//EN" "http://www.w3.org/Graphics/SVG/1.1/DTD/svg11.dtd"><svg width="100%" height="100%" viewBox="0 0 130 130" version="1.1" xmlns="http://www.w3.org/2000/svg" xmlns:xlink="http://www.w3.org/1999/xlink" xml:space="preserve" xmlns:serif="http://www.serif.com/" style="fill-rule:evenodd;clip-rule:evenodd;stroke-linejoin:round;stroke-miterlimit:2;"><rect id="Artboard1" x="0" y="0" width="129.5" height="129.5" style="fill:none;"/><path d="M35.626,103.693l-1.687,1.218l-1.17,6.482l4.949,-3.084l-1.284,-0.968l-0.808,-3.648Z" style="fill:#9d9fa2;fill-rule:nonzero;"/><path d="M38.224,31.345l-0.566,0.6l5.523,25.093l4.72,-21.059l-2.245,0.169l-7.432,-4.803Z" style="fill:#9d9fa2;fill-rule:nonzero;"/><path d="M49.666,29.543l0.359,-2.04l-1.442,-0.841l1.083,2.881Z" style="fill:#9d9fa2;fill-rule:nonzero;"/><path d="M31.597,86.068l-5.135,-3.578l-8.193,34.575l5.38,-0l6.776,-4.435l3.693,-15.553l-2.521,-11.009Z" style="fill:#9d9fa2;fill-rule:nonzero;"/><path d="M19.891,93.978l-3.96,-4.202l2.193,-11.128l1.048,-0.842l-4.083,-3.239l-0.781,-1.26l-3.301,14.141l8.525,8.727l0.359,-2.197Z" style="fill:#9d9fa2;fill-rule:nonzero;"/><path d="M97.905,86.068l-2.521,11.009l3.691,15.553l6.776,4.435l5.38,-0l-8.193,-34.575l-5.133,3.578Z" style="fill:#9d9fa2;fill-rule:nonzero;"/><path d="M109.972,96.175l8.521,-8.727l-3.301,-14.141l-0.781,1.26l-4.083,3.239l1.047,0.842l2.198,11.128l-3.963,4.202l0.362,2.197Z" style="fill:#9d9fa2;fill-rule:nonzero;"/><path d="M91.277,31.345l-7.431,4.803l-2.247,-0.169l4.72,21.059l5.523,-25.093l-0.565,-0.6Z" style="fill:#9d9fa2;fill-rule:nonzero;"/><path d="M93.878,103.693l-0.812,3.648l-1.284,0.968l4.954,3.084l-1.175,-6.482l-1.683,-1.218Z" style="fill:#9d9fa2;fill-rule:nonzero;"/><path d="M79.835,29.543l1.082,-2.881l-1.441,0.841l0.359,2.04Z" style="fill:#9d9fa2;fill-rule:nonzero;"/><path d="M70.479,75.104l-5.674,-5.676l-5.674,5.673l5.674,5.675l5.674,-5.672Z" style="fill:#fff;"/><path d="M64.693,65.904l-9.146,-9.149l-9.146,9.143l9.146,9.149l9.146,-9.143Z" style="fill:#fff;"/><path d="M72.683,102.825l-15.863,0l-1.959,2.235l19.778,-0l-1.956,-2.235Z" style="fill:#fff;fill-rule:nonzero;"/><path d="M64.757,0.25l-10.145,16.081l20.279,0.007l-10.134,-16.088Z" style="fill:#fff;fill-rule:nonzero;"/><path d="M59.132,56.809l5.673,5.673l5.673,-5.673l-5.673,-5.673l-5.673,5.673Z" style="fill:#fff;"/><path d="M47.179,33.074l-2.605,-7.612l8.971,-0l-2.042,-2.521l26.497,-0l-2.04,2.521l8.967,-0l-2.606,7.612l12.969,-8.331l1.437,-6.845l-7.559,5.043l-1.684,-2.005l-45.468,0l-1.678,2.005l-7.565,-5.043l1.441,6.845l12.965,8.331Z" style="fill:#fff;fill-rule:nonzero;"/><path d="M74.757,24.382l-20.014,0l1.956,2.16l16.102,-0l1.956,-2.16Z" style="fill:#fff;fill-rule:nonzero;"/><path d="M101.735,58.19l-3.158,13.566l-7.731,4.322l-2.28,9.532l-5.042,2.762l3.481,-16.375l8.042,-4.754l2.285,-11.167l7.083,-5.522l-1.084,-3.483l7.926,-34.696l-5.524,-0l-6.757,4.357l-19.656,85.483l2.053,1.524l-5.978,0l2.245,2.677l-25.779,-0l2.245,-2.677l-5.976,0l2.05,-1.524l-19.652,-85.483l-6.761,-4.357l-5.524,-0l7.926,34.696l-1.08,3.483l7.084,5.522l2.28,11.167l8.044,4.754l3.482,16.375l-5.043,-2.762l-2.281,-9.532l-7.732,-4.322l-3.158,-13.566l-5.917,-4.154l5.845,25.33l7.085,4.563l4.321,19.81l-2.172,0l4.935,4.921l45.778,-0l4.937,-4.921l-2.176,0l4.324,-19.81l7.083,-4.563l5.846,-25.33l-5.919,4.154m-60.058,30.811l5.17,2.86l1.646,6.463l-5.171,-2.859l-1.645,-6.464m44.502,6.464l-5.169,2.859l1.644,-6.463l5.169,-2.86l-1.644,6.464Z" style="fill:#fff;fill-rule:nonzero;"/><path d="M64.807,65.902l9.146,9.145l9.146,-9.148l-9.146,-9.144l-9.146,9.147Z" style="fill:#fff;"/><path d="M109.576,32.737l-0.122,2.931l4.298,4.526l-8.781,36.951l6.404,-4.381l7.203,-30.733l-9.002,-9.294Z" style="fill:#fff;fill-rule:nonzero;"/><path d="M20.048,35.668l-0.12,-2.931l-9.006,9.294l7.202,30.733l6.407,4.381l-8.783,-36.951l4.3,-4.526Z" style="fill:#fff;fill-rule:nonzero;"/><path d="M64.746,129.25l10.145,-16.081l-20.279,-0.008l10.134,16.089Z" style="fill:#fff;fill-rule:nonzero;"/></svg>