<?xml version="1.0" encoding="UTF-8" standalone="no"?><!DOCTYPE svg PUBLIC "-//W3C//DTD SVG 1.1//EN" "http://www.w3.org/Graphics/SVG/1.1/DTD/svg11.dtd"><svg width="100%" height="100%" viewBox="0 0 130 130" version="1.1" xmlns="http://www.w3.org/2000/svg" xmlns:xlink="http://www.w3.org/1999/xlink" xml:space="preserve" xmlns:serif="http://www.serif.com/" style="fill-rule:evenodd;clip-rule:evenodd;stroke-linejoin:round;stroke-miterlimit:2;"><rect id="Artboard1" x="0" y="0" width="129.5" height="129.5" style="fill:none;"/><path d="M63.21,96.839l-11.1,-19.227l12.641,-21.894l23.741,41.121l-25.282,0m-22.202,0l17.57,0l-8.785,-15.216l-8.785,15.216m26.794,-82.667l-3.051,-5.284l-3.053,5.284l0,37.606l6.104,0l0,-37.606m-31.937,82.352l-32.564,18.802l-3.051,5.286l6.102,0l32.565,-18.803l-3.052,-5.285m24.019,-67.001l0,-12.208l-54.336,94.119l10.568,-6.101l43.768,-75.81m66.315,85.803l-32.564,-18.801l-3.052,5.284l32.566,18.803l6.101,0l-3.051,-5.286m-2.247,-3.892l-54.336,-94.119l-0,12.208l43.769,75.81l10.567,6.101m-102.252,2.91l-10.855,6.268l107.81,0l-10.856,-6.268l-86.099,0Z" style="fill:#fff;fill-rule:nonzero;"/><path d="M34.969,83.733l-6.427,3.709l31.342,-54.286l0,7.421l-24.915,43.156m65.989,3.709l-31.342,-54.286l-0,7.421l24.915,43.156l6.427,3.709m-60.073,5.108l-6.571,3.794l60.868,0l-6.57,-3.794l-47.727,-0Z" style="fill:#9d9fa2;fill-rule:nonzero;"/></svg>