<?xml version="1.0" encoding="UTF-8" standalone="no"?><!DOCTYPE svg PUBLIC "-//W3C//DTD SVG 1.1//EN" "http://www.w3.org/Graphics/SVG/1.1/DTD/svg11.dtd"><svg width="100%" height="100%" viewBox="0 0 130 130" version="1.1" xmlns="http://www.w3.org/2000/svg" xmlns:xlink="http://www.w3.org/1999/xlink" xml:space="preserve" xmlns:serif="http://www.serif.com/" style="fill-rule:evenodd;clip-rule:evenodd;stroke-linejoin:round;stroke-miterlimit:2;"><rect id="Artboard1" x="0" y="0" width="129.5" height="129.5" style="fill:none;"/><path d="M20.559,23.409l-16.7,16.469l0,66.213l104.293,0l17.489,-17.487l-0,-65.195l-105.082,-0m26.524,74.575l-0,-67.091l58.101,33.547l-58.101,33.544Z" style="fill:#9d9fa2;fill-rule:nonzero;"/><path d="M17.468,18.414l-17.218,16.976l0,-20.031l125.461,-0l-0,3.055l-108.243,0m94.85,92.119l-108.761,-0l0,3.608l125.693,0l0,-20.54l-16.932,16.932m-13.561,-46.095l-48.341,-27.634l0,55.268l48.341,-27.634Z" style="fill:#fff;fill-rule:nonzero;"/></svg>