<?xml version="1.0" encoding="UTF-8" standalone="no"?><!DOCTYPE svg PUBLIC "-//W3C//DTD SVG 1.1//EN" "http://www.w3.org/Graphics/SVG/1.1/DTD/svg11.dtd"><svg width="100%" height="100%" viewBox="0 0 130 130" version="1.1" xmlns="http://www.w3.org/2000/svg" xmlns:xlink="http://www.w3.org/1999/xlink" xml:space="preserve" xmlns:serif="http://www.serif.com/" style="fill-rule:evenodd;clip-rule:evenodd;stroke-linejoin:round;stroke-miterlimit:2;"><rect id="Artboard1" x="0" y="0" width="129.5" height="129.5" style="fill:none;"/><clipPath id="_clip1"><rect x="0" y="0" width="129.5" height="129.5"/></clipPath><g clip-path="url(#_clip1)"><path d="M20.182,76.059l-5.612,-0l-11.169,-11.171l5.957,-5.956l5.612,0l-5.955,5.956l11.167,11.171m100.46,-17.127l-5.612,0l5.955,5.956l-11.167,11.171l5.612,-0l11.168,-11.171l-5.956,-5.956m-81.707,-23.964l21.808,21.81l-5.211,5.209l18.934,-0l-5.211,-5.21l21.81,-21.809l14.649,14.648l5.612,0l-20.261,-20.262l-26.065,26.068l-26.065,-26.068l-20.261,20.262l5.612,0l14.649,-14.648m52.13,59.842l-21.81,-21.812l5.211,-5.208l-18.934,0l5.211,5.208l-21.808,21.812l-15.392,-15.393l-5.613,0l21.005,21.004l26.065,-26.065l26.065,26.065l21.005,-21.004l-5.613,0l-15.392,15.393Z" style="fill:#9d9fa2;fill-rule:nonzero;"/><path d="M98.855,72.632l-7.83,-7.83l7.83,-7.832l7.831,7.832l-7.831,7.83m-75.542,-7.83l7.829,7.83l7.833,-7.83l-7.833,-7.832l-7.829,7.832m72.568,-7.788l-4.857,-4.858l-4.858,4.858l4.858,4.858l4.857,-4.858m0,15.666l-4.857,-4.859l-4.858,4.859l4.858,4.859l4.857,-4.859m-51.952,-15.666l-4.858,-4.858l-4.858,4.858l4.858,4.858l4.858,-4.858m31.339,7.788l7.829,7.83l7.832,-7.83l-7.832,-7.832l-7.829,7.832m-20.536,-0l-7.829,-7.832l-7.832,7.832l7.832,7.83l7.829,-7.83m-10.803,7.878l-4.858,-4.859l-4.858,4.859l4.858,4.859l4.858,-4.859m-39,-7.792l5.956,-5.956l-4.429,0l-5.956,5.956l11.167,11.171l4.43,-0l-11.168,-11.171m118.616,-5.956l-4.43,0l5.956,5.956l-11.169,11.171l4.428,-0l11.17,-11.171l-5.955,-5.956m-84.61,-28.051l26.065,26.068l26.065,-26.068l18.735,18.735l4.428,0l-23.163,-23.163l-24.844,24.845l-0,-25.341l-2.443,0l0,25.341l-24.843,-24.845l-23.163,23.163l4.428,0l18.735,-18.735m52.13,68.014l-26.065,-26.069l-26.065,26.069l-19.479,-19.478l-4.428,0l23.907,23.908l24.843,-24.847l0,25.065l2.443,-0l-0,-25.065l24.844,24.847l23.907,-23.908l-4.428,0l-19.479,19.478Z" style="fill:#fff;fill-rule:nonzero;"/></g></svg>