<?xml version="1.0" encoding="UTF-8" standalone="no"?><!DOCTYPE svg PUBLIC "-//W3C//DTD SVG 1.1//EN" "http://www.w3.org/Graphics/SVG/1.1/DTD/svg11.dtd"><svg width="100%" height="100%" viewBox="0 0 130 130" version="1.1" xmlns="http://www.w3.org/2000/svg" xmlns:xlink="http://www.w3.org/1999/xlink" xml:space="preserve" xmlns:serif="http://www.serif.com/" style="fill-rule:evenodd;clip-rule:evenodd;stroke-linejoin:round;stroke-miterlimit:2;"><rect id="Artboard1" x="0" y="0" width="129.5" height="129.5" style="fill:none;"/><path d="M21.173,6.586l-14.587,14.589l0,87.651l14.088,14.088l87.249,0l14.991,-14.992l-0,-85.844l-15.493,-15.492l-86.248,-0Z" style="fill:#fff;fill-opacity:0.13;fill-rule:nonzero;"/><path d="M110.829,1.775l-92.158,0l1.201,-1.201l89.756,-0l1.201,1.201m-110.255,107.855l1.204,1.2l0,-92.159l-1.204,1.201l-0,89.758m19.298,19.296l89.756,0l1.201,-1.2l-92.158,0l1.201,1.2m107.852,-110.253l-0,92.161l1.202,-1.204l0,-89.758l-1.202,-1.199m-20.101,-12.889l16.094,16.095l-0,86.249l-15.591,15.591l-87.652,0l-14.687,-14.69l-0,-88.054l15.187,-15.191l86.649,-0m14.489,16.696l-15.089,-15.091l-85.445,0l-14.189,14.189l0,86.849l13.688,13.685l86.446,0l14.589,-14.586l0,-85.046Z" style="fill:#9d9fa2;fill-rule:nonzero;"/><path d="M64.595,57.759l-12.041,-12.042l12.041,-12.036l12.039,12.036l-12.039,12.042m-12.041,26.781l12.041,12.043l12.039,-12.043l-12.039,-12.043l-12.041,12.043m12.041,-19.527l19.408,19.403l19.406,-19.403l-19.406,-19.408l-19.408,19.408m-19.644,-19.408l-19.405,19.408l19.405,19.403l19.405,-19.403l-19.405,-19.408m-44.699,-45.355l0,20.944l20.944,-20.944l-20.944,0m108.052,0l20.944,20.944l-0,-20.944l-20.944,0m-108.052,129l20.944,0l-20.944,-20.944l0,20.944m128.996,0l-0,-20.944l-20.944,20.944l20.944,0Z" style="fill:#fff;fill-rule:nonzero;"/></svg>