<?xml version="1.0" encoding="UTF-8" standalone="no"?><!DOCTYPE svg PUBLIC "-//W3C//DTD SVG 1.1//EN" "http://www.w3.org/Graphics/SVG/1.1/DTD/svg11.dtd"><svg width="100%" height="100%" viewBox="0 0 130 130" version="1.1" xmlns="http://www.w3.org/2000/svg" xmlns:xlink="http://www.w3.org/1999/xlink" xml:space="preserve" xmlns:serif="http://www.serif.com/" style="fill-rule:evenodd;clip-rule:evenodd;stroke-linejoin:round;stroke-miterlimit:2;"><rect id="Artboard1" x="0" y="0" width="129.5" height="129.5" style="fill:none;"/><path d="M41.311,25.663l7.13,1.006l10.115,21.897l-2.911,-0l-14.334,-20.689l-0,-2.214m0.077,-2.711l20.222,3.02l-0,-4.028l-20.222,-3.021l0,4.029m46.564,-4.029l-20.221,3.021l0,4.028l20.221,-3.02l-0,-4.029m0.077,6.74l-7.125,1.006l-10.123,21.897l2.916,-0l14.332,-20.689l0,-2.214m-34.323,78.639l21.85,-0l-5.53,-23.089l-10.787,0l-5.533,23.089m22.313,6.199l1.165,-4.681l-25.103,-0l1.163,4.681l22.775,-0m27.89,-110.251l-78.32,-0l-2.27,2.325l82.858,-0l-2.268,-2.325m-80.59,126.675l2.27,2.325l78.32,-0l2.272,-2.325l-82.862,-0Z" style="fill:#9d9fa2;fill-rule:nonzero;"/><path d="M74.169,59.009l-5.955,5.954l5.955,5.955l5.955,-5.955l-5.955,-5.954m-3.343,5.954c1.146,-1.145 2.198,-2.2 3.343,-3.344c1.144,1.144 2.202,2.199 3.343,3.344c-1.141,1.145 -2.199,2.201 -3.343,3.345c-1.145,-1.144 -2.197,-2.2 -3.343,-3.345m-21.809,0l5.955,5.955l5.954,-5.955l-5.954,-5.954l-5.955,5.954m5.955,3.346c-1.144,-1.145 -2.202,-2.201 -3.346,-3.346c1.144,-1.145 2.202,-2.201 3.346,-3.345c1.144,1.144 2.201,2.2 3.346,3.345c-1.145,1.145 -2.202,2.201 -3.346,3.346m19.252,6.251l-9.597,-9.596l-9.595,9.596l9.595,9.599l9.597,-9.599m-9.597,-6.987c1.643,1.641 5.347,5.345 6.989,6.987c-1.642,1.64 -5.346,5.349 -6.989,6.99c-1.64,-1.641 -5.344,-5.35 -6.984,-6.99c1.64,-1.642 5.344,-5.345 6.984,-6.987m9.597,-12.323l-9.597,-9.598l-9.595,9.598l9.595,9.594l9.597,-9.594m-9.597,-6.989c1.643,1.642 5.347,5.349 6.989,6.989c-1.642,1.642 -5.346,5.345 -6.989,6.985l-6.984,-6.985c1.64,-1.64 5.344,-5.347 6.984,-6.989m23.462,65.067l27.913,0l-0,3.01l-8.077,8.263l-86.349,0l-8.078,-8.263l0,-3.01l27.91,0l5.341,5.463l36.005,-0l5.335,-5.463m-45.19,-1.646l43.699,0l-5.468,5.598l-32.76,0l-5.471,-5.598m43.699,-93.865l-43.699,-0l5.472,-5.596l32.759,-0l5.468,5.596m29.404,-4.652l-0,3.007l-27.913,0l-5.335,-5.463l-36.008,0l-5.338,5.463l-27.91,0l0,-3.007l8.078,-8.266l86.349,-0l8.077,8.266Z" style="fill:#fff;fill-rule:nonzero;"/></svg>