<?xml version="1.0" encoding="UTF-8" standalone="no"?><!DOCTYPE svg PUBLIC "-//W3C//DTD SVG 1.1//EN" "http://www.w3.org/Graphics/SVG/1.1/DTD/svg11.dtd"><svg width="100%" height="100%" viewBox="0 0 130 130" version="1.1" xmlns="http://www.w3.org/2000/svg" xmlns:xlink="http://www.w3.org/1999/xlink" xml:space="preserve" xmlns:serif="http://www.serif.com/" style="fill-rule:evenodd;clip-rule:evenodd;stroke-linejoin:round;stroke-miterlimit:2;"><rect id="Artboard1" x="0" y="0" width="129.5" height="129.5" style="fill:none;"/><path d="M50.869,0l6.65,56.532l-9.565,0l-0.292,-2.108l6.44,-6.735l-4.489,-35.086l-4.601,2.886l-6.233,28.326l5.967,40.668l-1.355,0l-8.477,-41.033l10.136,-38.446l5.819,-5.004m33.579,5.004l-5.818,-5.004l-6.651,56.532l9.567,0l0.292,-2.108l-6.441,-6.735l4.491,-35.086l4.598,2.886l6.235,28.326l-5.968,40.668l1.354,0l8.479,-41.033l-10.138,-38.446Z" style="fill:#9d9fa2;fill-rule:nonzero;"/><path d="M75.177,68.864l-4.185,4.146c-0,0 -2.234,6.501 -2.659,7.735l-7.291,0c-0.424,-1.234 -2.658,-7.735 -2.658,-7.735l-6.526,-6.465l7.631,53.312l10.399,-0l7.63,-53.312l-2.341,2.319Z" style="fill:#fff;fill-opacity:0.13;fill-rule:nonzero;"/><path d="M64.82,41.033l3.755,3.757l-3.755,3.756l-3.755,-3.756l3.755,-3.757m22.692,16.441l1.718,-12.324l-5.83,-26.247l-3.013,-1.893l-3.931,29.018l11.056,11.446m-18.937,-24.798l-3.755,-3.757l-3.755,3.757l3.755,3.76l3.755,-3.76m2.3,12.076l6.057,-6.054l-6.057,-6.059l-6.054,6.059l6.054,6.054m-28.889,12.722l11.057,-11.446l-3.93,-29.018l-3.015,1.893l-5.829,26.247l1.717,12.324m22.76,-18.776l-6.057,-6.059l-6.053,6.059l6.053,6.054l6.057,-6.054m27.719,-25.799l-6.567,-7.239l9.9,38.222l-8.492,40.601l3.806,0l10.725,-40.127l-9.372,-31.457m-48.864,-7.239l-6.568,7.239l-9.37,31.457l10.724,40.127l3.807,0l-8.494,-40.601l9.901,-38.222m27.181,58.498l8.688,0l-9.469,64.842l-10.626,0l-9.468,-64.842l8.687,0l2.05,10.765l8.087,-0l2.051,-10.765m1.172,9.454l-2.831,8.239l-8.87,0l-2.831,-8.239l-4.002,-3.96l7.028,49.098l8.48,0l7.028,-49.098l-4.002,3.96Z" style="fill:#fff;fill-rule:nonzero;"/></svg>