<?xml version="1.0" encoding="UTF-8" standalone="no"?><!DOCTYPE svg PUBLIC "-//W3C//DTD SVG 1.1//EN" "http://www.w3.org/Graphics/SVG/1.1/DTD/svg11.dtd"><svg width="100%" height="100%" viewBox="0 0 130 130" version="1.1" xmlns="http://www.w3.org/2000/svg" xmlns:xlink="http://www.w3.org/1999/xlink" xml:space="preserve" xmlns:serif="http://www.serif.com/" style="fill-rule:evenodd;clip-rule:evenodd;stroke-linejoin:round;stroke-miterlimit:2;"><rect id="Artboard1" x="0" y="0" width="129.5" height="129.5" style="fill:none;"/><path d="M64.467,38.744l-9.986,9.985l9.986,9.986l9.985,-9.986l-9.985,-9.985Z" style="fill:#9d9fa2;"/><path d="M64.463,90.913l9.991,-9.987l-9.983,-9.987l-9.99,9.987l9.982,9.987Z" style="fill:#9d9fa2;"/><path d="M96.66,64.737l-16.097,-16.107l-16.097,16.088l16.097,16.106l16.097,-16.087Z" style="fill:#9d9fa2;"/><path d="M48.181,48.638l-16.101,16.095l16.09,16.096l16.101,-16.096l-16.09,-16.095Z" style="fill:#9d9fa2;"/><path d="M6.398,85.648l9.929,13.299l-1.127,1.004l-12.942,-12.277l-0,-16.942l-2.008,-0l-0,-11.919l2.008,-0l-0,-16.796l12.942,-12.438l1.004,0.755l-9.806,13.424l-0,41.89m120.841,-26.835l0,-16.796l-12.936,-12.438l-1.003,0.755l9.8,13.424l-0,41.89l-9.926,13.299l1.129,1.004l12.936,-12.277l0,-16.942l2.011,-0l-0,-11.919l-2.011,-0m-113.941,-3.545l-0,-6.442l3.158,-4.724l1.485,1.397l40.4,-34.989l-0,-1.649l-45.325,32.011l2.235,2.1l-4.085,5.05l0,8.263l-1.252,0.597l0,15.391l1.252,0.577l0,8.601l4.098,5.063l-2.248,2.11l45.325,32.015l-0,-1.648l-40.4,-34.991l-1.475,1.386l-3.168,-4.739l-0,-6.82l10.835,4.972l37.222,-8.44l0,-16.062l-38.359,-3.656l-9.698,4.627m105.178,-5.988l-5.051,-11.044l-40.78,-26.345l0,6.395l43.917,33.485l-0,3.279l-2.889,0l0,13.425l2.889,0l-0,1.884l-6.903,0.75l-37.014,28.465l0,9.338l31.743,-12.976l14.088,-11.007l-0,-35.649Z" style="fill:#fff;fill-rule:nonzero;"/></svg>