<?xml version="1.0" encoding="UTF-8" standalone="no"?><!DOCTYPE svg PUBLIC "-//W3C//DTD SVG 1.1//EN" "http://www.w3.org/Graphics/SVG/1.1/DTD/svg11.dtd"><svg width="100%" height="100%" viewBox="0 0 130 130" version="1.1" xmlns="http://www.w3.org/2000/svg" xmlns:xlink="http://www.w3.org/1999/xlink" xml:space="preserve" xmlns:serif="http://www.serif.com/" style="fill-rule:evenodd;clip-rule:evenodd;stroke-linejoin:round;stroke-miterlimit:2;"><rect id="Artboard1" x="0" y="0" width="129.5" height="129.5" style="fill:none;"/><path d="M95.83,68.622l5.986,0l-42.424,24.495l2.993,-5.185c8.99,-5.19 24.458,-14.121 33.445,-19.31m0.006,-7.745l5.987,-0l-42.429,-24.493l2.993,5.186c8.994,5.192 24.464,14.121 33.449,19.307m-40.174,23.208l0,-38.675l-2.993,-5.185l0,49.044l2.993,-5.184Z" style="fill:#9d9fa2;fill-rule:nonzero;"/><path d="M32.728,63.138l-2.633,-2.633l2.633,-2.631l2.633,2.631l-2.633,2.633m-2.633,5.855l2.633,2.634l2.633,-2.634l-2.633,-2.632l-2.633,2.632m6.878,-8.513l-4.244,4.245l4.244,4.243l4.242,-4.243l-4.242,-4.245m-8.541,0l-4.243,4.245l4.243,4.243l4.245,-4.243l-4.245,-4.245m60.89,0.025l-2.631,-2.631l-2.633,2.631l2.633,2.633l2.631,-2.633m0,8.488l-2.631,-2.632l-2.633,2.632l2.633,2.634l2.631,-2.634m5.856,-4.268l-4.243,-4.245l-4.244,4.245l4.244,4.243l4.243,-4.243m-17.025,-0l4.243,4.243l4.243,-4.243l-4.243,-4.245l-4.243,4.245m-54.822,6.143c-1.148,-0.43 -12.145,-4.566 -16.275,-6.117c4.13,-1.555 15.127,-5.69 16.275,-6.119c0.674,0.688 1.999,2.044 1.999,2.044l1.711,-1.674l-3.089,-3.162l-0.733,0.274l-22.969,8.637l23.702,8.908l3.089,-3.161l-1.711,-1.674c0,0 -1.325,1.357 -1.999,2.044m19.329,-12.775l34.349,0c0.53,0.58 2.238,2.446 2.238,2.446l1.766,-1.618l-2.95,-3.221l-36.457,-0l-2.951,3.221l1.765,1.618c0,0 1.71,-1.866 2.24,-2.446m38.353,12.486l-1.766,-1.618c0,0 -1.708,1.866 -2.238,2.446l-34.349,-0c-0.53,-0.58 -2.24,-2.446 -2.24,-2.446l-1.765,1.618l2.951,3.224l36.457,-0l2.95,-3.224m44.178,-8.174l-29.571,0l0,4.691l29.566,0l4.064,-2.348l-4.059,-2.343m-68.085,22.235l-14.782,25.604l0,4.693l4.059,-2.343l14.785,-25.609l-4.062,-2.345m4.064,-42.126l-14.783,-25.605l-4.063,-2.346l0,4.687l14.784,25.608l4.062,-2.344m-14.056,10.979l-0,-22.89l-4.79,-8.296l0,31.186l4.79,0m65.851,7.384l9.58,-0l-73.512,-42.439l4.79,8.294c14.087,8.134 45.059,26.016 59.142,34.145m-70.641,6.893c0.537,0.588 1.054,1.153 1.307,1.431l3.483,0l-0,-8.901l-3.483,-0c-0.253,0.278 -0.77,0.841 -1.307,1.429l0,6.041m11.495,34.997l-4.791,8.299l73.512,-42.444l-9.58,0c-14.086,8.134 -45.056,26.014 -59.141,34.145m-6.705,-3.875l-0,-22.885l-4.79,-0l0,31.182l4.79,-8.297Z" style="fill:#fff;fill-rule:nonzero;"/></svg>