<?xml version="1.0" encoding="UTF-8" standalone="no"?><!DOCTYPE svg PUBLIC "-//W3C//DTD SVG 1.1//EN" "http://www.w3.org/Graphics/SVG/1.1/DTD/svg11.dtd"><svg width="100%" height="100%" viewBox="0 0 130 130" version="1.1" xmlns="http://www.w3.org/2000/svg" xmlns:xlink="http://www.w3.org/1999/xlink" xml:space="preserve" xmlns:serif="http://www.serif.com/" style="fill-rule:evenodd;clip-rule:evenodd;stroke-linejoin:round;stroke-miterlimit:2;"><rect id="Artboard1" x="0" y="0" width="129.5" height="129.5" style="fill:none;"/><path d="M56.396,62.641l-48.685,-0l0,-9.639l5.92,-0l4.591,4.475l14.846,0l4.477,-4.475l17.67,-0l5.049,5.851l-3.868,3.788m-30.237,-40.818l0.256,-6.113l7.604,5.191l2.866,-2.866l-12.535,-12.536l-7.968,-0.627l0.077,7.249l9.7,9.702m87.175,69.563l-10.122,0.033l18.21,18.21l2.729,-2.726l0.048,-4.653l-10.865,-10.864m-27.074,-21.866l-2.473,2.474l14.847,14.847l0.527,-9.628l-7.687,-7.686l-5.214,-0.007m-23.214,-10.696l0.747,-1.259l5.588,-5.589l2.491,0.012l-28.361,-28.359l-0,5.436l-8.948,1.278l28.483,28.481m22.165,2.058l13.899,-13.899l-0.363,-10.02l-16.388,16.389l3.326,3.325l-0.474,4.205m31.146,-37.928l-1.801,-1.801l-6.687,6.689l-0.267,10.649l9.063,-9.064l-0.308,-6.473m-57.796,46.589l-9.845,9.842l11.34,0.077l6.705,-6.703l-3.202,-3.199l-4.998,-0.017m-27.998,27.998l-0.054,6.32l5.018,0.13l11.21,-11.21l-5.708,-5.707l-10.466,10.467m38.157,-78.478l0,28.441l9.513,-0l1.446,1.583l0,-23.176l-4.866,-0l-6.093,-6.848m-0.767,105.312l7.457,-0l-0,-9.411l-7.457,-6.769l-0,16.18m-0,-30.639l7.457,-0l-0,-18.359l-7.457,-1.261l-0,19.62m36.489,-37.637l-11.707,0l-3.44,3.444l-0,7.687l14.367,-0l-3.454,-4.361l4.037,-3.212l0.197,-3.558m2.752,11.131l10.901,-0l-0,-11.131l-10.706,0l4.394,4.279l0,2.181l-4.589,4.671Z" style="fill:#9d9fa2;fill-rule:nonzero;"/><path d="M74.985,59.261l-4.01,-4.01l4.01,-4.012l4.012,4.012l-4.012,4.01m-4.01,8.923l4.01,4.012l4.012,-4.012l-4.012,-4.012l-4.01,4.012m10.477,-12.971l-6.465,6.466l6.465,6.465l6.465,-6.465l-6.465,-6.466m-13.011,-0l-6.466,6.466l6.466,6.465l6.468,-6.465l-6.468,-6.466m7.405,-7.72l2.456,-2.926l0,-26.678l-3.833,-3.786l-2.536,-0l0,30.38l2.753,3.01l1.16,0m-4.107,27.539l0,54.218l2.816,0l3.551,-3.614l-0,-49.744l-1.376,-0.86l-4.991,-0m28.055,-16.523l-6.369,6.369l28.57,-0l0,-6.369l-22.201,-0m-12.336,17.183l-0.012,4.206l23.579,23.578l4.532,0.058l2.268,-2.264l-25.493,-25.492l-4.874,-0.086m-20.395,-25.183l-50.259,-50.259l-4.501,4.504l50.258,50.256l4.502,-4.501m-29.927,43.923l1.49,1.49l6.22,-0.193l17.254,-17.254l0.045,-4.431l-4.484,-0.138l-20.525,20.526m81.293,-71.701l-4.504,-4.505l-31.496,31.499l4.502,4.501l31.498,-31.495m-59.749,35.778l-34.273,-0l6.065,6.369l21.387,-0l6.821,-6.369m-53.379,-0l-0,2.777l3.615,3.592l16.135,-0l-6.065,-6.369l-13.685,-0Z" style="fill:#fff;fill-rule:nonzero;"/></svg>