<?xml version="1.0" encoding="UTF-8" standalone="no"?><!DOCTYPE svg PUBLIC "-//W3C//DTD SVG 1.1//EN" "http://www.w3.org/Graphics/SVG/1.1/DTD/svg11.dtd"><svg width="100%" height="100%" viewBox="0 0 130 130" version="1.1" xmlns="http://www.w3.org/2000/svg" xmlns:xlink="http://www.w3.org/1999/xlink" xml:space="preserve" xmlns:serif="http://www.serif.com/" style="fill-rule:evenodd;clip-rule:evenodd;stroke-linejoin:round;stroke-miterlimit:2;"><rect id="Artboard1" x="0" y="0" width="129.5" height="129.5" style="fill:none;"/><path d="M13.794,51.343l-4.468,-9.18l36.927,-0.016l38.395,11.611l8.311,8.261l-48.244,-10.676l-30.921,-0m92.899,13.663l-2.793,-5.587l-8.456,-2.401l2.297,6.024l8.952,1.964m1.675,11.701l-8.333,-4.259l-2.586,-3.64l-51.439,-11.218l1.967,5.258l-10.092,2.885l70.483,10.974m10.266,-13.77l4.606,6.403l2.279,8.712l2.661,-8.261l-9.546,-6.854m-98.904,-5.193l-15.236,0l26.226,29.714l8.076,-8.456l-19.066,-21.258m20.396,22.949l-7.247,8.697l21.256,0.966l-2.777,-8.004l-11.232,-1.659m7.005,-11.007l8.696,20.549l7.384,-1.103l-8.953,-17.876l-7.127,-1.57m13.528,11.731l3.969,7.28l57.438,-5.935l-4.895,-5.571l-56.512,4.226Z" style="fill:#fff;fill-rule:nonzero;"/><path d="M11.12,53.879l-5.918,-11.87l2.675,0.121l5.072,10.179l30.92,-0l49.371,10.991l1.841,1.964l-50.734,-11.402l-33.227,0.017m60.481,-8.866l-24.003,-9.235l-0.951,5.281l29.367,8.818l-4.413,-4.864m36.286,22.917l-1.001,-1.853l-8.662,-1.706l0.603,1.795l9.06,1.764m20.911,3.809l-2.765,9.695l-0.981,-0.379l-3.156,-11.837l-3.02,-4.469l-2.897,-2.085l4.349,7.384l3.501,12.441l1.935,2.069l3.486,-9.542l-0.452,-3.277m-128.548,-13.65l28.039,31.647l1.449,-1.328l-27.055,-30.181l-2.433,-0.138m31.903,32.509l-1.69,2.037l24.76,1.087l-0.876,-2.038l-22.194,-1.086m24.035,0.604l0.606,1.916l7.368,-0.983l-1.104,-1.779l-6.87,0.846m8.818,-1.208l1.089,1.659l58.098,-6.072l-1.813,-1.99l-57.374,6.403Z" style="fill:#9d9fa2;fill-rule:nonzero;"/></svg>