<?xml version="1.0" encoding="UTF-8" standalone="no"?><!DOCTYPE svg PUBLIC "-//W3C//DTD SVG 1.1//EN" "http://www.w3.org/Graphics/SVG/1.1/DTD/svg11.dtd"><svg width="100%" height="100%" viewBox="0 0 130 130" version="1.1" xmlns="http://www.w3.org/2000/svg" xmlns:xlink="http://www.w3.org/1999/xlink" xml:space="preserve" xmlns:serif="http://www.serif.com/" style="fill-rule:evenodd;clip-rule:evenodd;stroke-linejoin:round;stroke-miterlimit:2;"><rect id="Artboard1" x="0" y="0" width="129.5" height="129.5" style="fill:none;"/><path d="M71.538,75.746l-13.576,0l4.829,-38.892l3.917,-0l4.83,38.892m-65.123,14.345l116.671,0l-0.912,-2.063l7.076,1.345l-11.096,-22.931l-8.854,-2.242l-12.664,-22.752l-15.437,-4.482l16.842,46.663l-19.45,-4.56l-27.683,0l-19.449,4.56l16.842,-46.663l-15.437,4.482l-12.664,22.752l-8.854,2.242l-11.096,22.931l7.075,-1.345l-0.91,2.063m-0.351,1.411l-0.762,1.144l118.895,0l-0.761,-1.144l-117.372,0Z" style="fill:#9a9a9a;fill-rule:nonzero;"/><path d="M64.805,52.187l-5.769,-5.769l5.769,-5.77l5.771,5.77l-5.771,5.769m-5.769,12.836l5.769,5.771l5.771,-5.771l-5.771,-5.771l-5.769,5.771m15.072,-0.057l9.3,-9.302l-9.3,-9.301l-9.3,9.301l9.3,9.302m-9.416,-9.302l-9.301,-9.301l-9.3,9.301l9.3,9.302l9.301,-9.302m51.325,25.778l3.251,0.785l-8.071,-15.496l-3.921,-0.784l-12.218,-22.612l-10.214,-2.913l15.929,42.36l-22.19,-4.59l-27.668,0l-22.19,4.59l15.929,-42.36l-10.214,2.913l-12.216,22.612l-3.922,0.784l-8.071,15.496l3.25,-0.785l-3.473,7.636l20.606,0l22.379,-9.316l23.512,-0l22.38,9.316l20.607,0l-3.475,-7.636m-62.902,0.112l-16.802,7.524l56.873,0l-16.802,-7.524l-23.269,-0Z" style="fill:#fff;fill-rule:nonzero;"/></svg>