<svg viewBox="0 0 130 130" xmlns="http://www.w3.org/2000/svg" xml:space="preserve" style="fill-rule:evenodd;clip-rule:evenodd">
	<path style="fill:none" d="M0 0h129.5v129.5H0z"/>
	<clipPath id="a">
		<path d="M0 0h129.5v129.5H0z"/>
	</clipPath>
	<g clip-path="url(#a)">
		<path d="m58.374 62.469 5.188 17.801-15.276-10.508-6.266 17.451-6.183-17.481L20.51 80.167l5.273-17.776-18.533-.566 14.715-11.282L7.304 39.191l18.536-.478-5.189-17.802L35.928 31.42l6.266-17.451 6.183 17.48 15.327-10.435L58.43 38.79l18.534.567-14.715 11.282L76.91 61.991z" style="fill:none;stroke:#fff;stroke-width:4.69px"/>
		<path d="m111.468 101.18 3.009 10.325-8.86-6.095-3.634 10.121-3.586-10.138-8.889 6.052 3.058-10.31-10.749-.328 8.534-6.544-8.503-6.584 10.751-.278-3.01-10.324 8.861 6.095 3.634-10.122 3.586 10.139 8.889-6.053-3.058 10.311 10.749.328-8.534 6.544 8.503 6.583z" style="fill:none;stroke:#fff;stroke-width:2.72px"/>
	</g>
</svg>
