<?xml version="1.0" encoding="UTF-8" standalone="no"?><!DOCTYPE svg PUBLIC "-//W3C//DTD SVG 1.1//EN" "http://www.w3.org/Graphics/SVG/1.1/DTD/svg11.dtd"><svg width="100%" height="100%" viewBox="0 0 130 130" version="1.1" xmlns="http://www.w3.org/2000/svg" xmlns:xlink="http://www.w3.org/1999/xlink" xml:space="preserve" xmlns:serif="http://www.serif.com/" style="fill-rule:evenodd;clip-rule:evenodd;stroke-linejoin:round;stroke-miterlimit:2;"><rect id="Artboard1" x="0" y="0" width="129.5" height="129.5" style="fill:none;"/><path d="M14.028,67.15c-0.985,2.738 -3.606,4.697 -6.681,4.697c-3.917,0 -7.097,-3.18 -7.097,-7.097c-0,-3.917 3.18,-7.097 7.097,-7.097c3.075,-0 5.696,1.959 6.681,4.697l18.779,-0l-0,4.8l-18.779,0Zm101.444,0l-19.279,0l0,-4.8l19.279,-0c0.985,-2.738 3.606,-4.697 6.681,-4.697c3.917,-0 7.097,3.18 7.097,7.097c0,3.917 -3.18,7.097 -7.097,7.097c-3.075,0 -5.696,-1.959 -6.681,-4.697Zm-50.722,-28.405l3.739,14.817l11.983,-9.85l-5.933,14.123l15.649,-1.121l-13.338,8.036l13.338,8.036l-15.649,-1.121l5.933,14.123l-11.983,-9.85l-3.739,14.817l-3.739,-14.817l-11.983,9.85l5.933,-14.123l-15.649,1.121l13.338,-8.036l-13.338,-8.036l15.649,1.121l-5.933,-14.123l11.983,9.85l3.739,-14.817Z"/></svg>