<svg viewBox="0 0 130 130" xmlns="http://www.w3.org/2000/svg" xml:space="preserve" style="fill-rule:evenodd;clip-rule:evenodd;stroke-linejoin:round;stroke-miterlimit:2">
	<path style="fill:none" d="M0 0h129.5v129.5H0z"/>
	<path d="M22.777 114.161c-1.671 4.384-5.916 7.501-10.884 7.501-6.426 0-11.643-5.217-11.643-11.644 0-6.426 5.217-11.643 11.643-11.643 1.253 0 2.459.198 3.59.565l41.035-71.227a11.6 11.6 0 0 1-3.411-8.231c0-6.427 5.217-11.644 11.643-11.644s11.643 5.217 11.643 11.644c0 3.352-1.419 6.375-3.69 8.501l40.951 71.081a11.6 11.6 0 0 1 3.953-.689c6.426 0 11.643 5.217 11.643 11.643s-5.217 11.644-11.643 11.644c-4.968 0-9.213-3.117-10.884-7.501zm-3.643-13.259a11.63 11.63 0 0 1 4.403 9.116h82.426c0-3.553 1.596-6.737 4.109-8.873l-40.853-70.91a11.6 11.6 0 0 1-4.469.89c-1.717 0-3.349-.373-4.817-1.041z"/>
</svg>
