<svg viewBox="0 0 130 130" xmlns="http://www.w3.org/2000/svg" xml:space="preserve" style="fill-rule:evenodd;clip-rule:evenodd;stroke-linejoin:round;stroke-miterlimit:2">
	<path style="fill:none" d="M0 0h129.5v129.5H0z"/>
	<path style="fill:#ffffff" d="M21.017 66.208c-.71 5.07-5.069 8.976-10.333 8.976C4.925 75.184.25 70.509.25 64.75s4.675-10.434 10.434-10.434c5.264 0 9.623 3.906 10.333 8.976h67.349l-8.029-8.028 3.229-3.23L96.282 64.75 83.566 77.466l-3.229-3.23 8.029-8.028zm-10.333-8.439a6.984 6.984 0 0 0-6.981 6.981 6.984 6.984 0 0 0 6.981 6.981 6.984 6.984 0 0 0 6.981-6.981 6.984 6.984 0 0 0-6.981-6.981"/>
	<circle cx="10.684" cy="64.75" r="6.981" style="fill:#e30127"/>
	<circle cx="118.816" cy="64.75" r="10.434" style="fill:#ffffff"/>
</svg>
