<svg viewBox="0 0 130 130" xmlns="http://www.w3.org/2000/svg" xml:space="preserve" style="fill-rule:evenodd;clip-rule:evenodd;stroke-linejoin:round;stroke-miterlimit:2">
	<path style="fill:none" d="M0 0h129.5v129.5H0z"/>
	<path style="fill:#fff" d="M14.028 67.15a7.1 7.1 0 0 1-6.681 4.697A7.1 7.1 0 0 1 .25 64.75a7.1 7.1 0 0 1 7.097-7.097 7.1 7.1 0 0 1 6.681 4.697h18.779v4.8zm101.444 0H96.193v-4.8h19.279a7.1 7.1 0 0 1 6.681-4.697 7.1 7.1 0 0 1 7.097 7.097 7.1 7.1 0 0 1-7.097 7.097 7.1 7.1 0 0 1-6.681-4.697M64.75 38.745l3.739 14.817 11.983-9.85-5.933 14.123 15.649-1.121L76.85 64.75l13.338 8.036-15.649-1.121 5.933 14.123-11.983-9.85-3.739 14.817-3.739-14.817-11.983 9.85 5.933-14.123-15.649 1.121L52.65 64.75l-13.338-8.036 15.649 1.121-5.933-14.123 11.983 9.85z"/>
</svg>
