<?xml version="1.0" encoding="UTF-8" standalone="no"?><!DOCTYPE svg PUBLIC "-//W3C//DTD SVG 1.1//EN" "http://www.w3.org/Graphics/SVG/1.1/DTD/svg11.dtd"><svg width="100%" height="100%" viewBox="0 0 130 130" version="1.1" xmlns="http://www.w3.org/2000/svg" xmlns:xlink="http://www.w3.org/1999/xlink" xml:space="preserve" xmlns:serif="http://www.serif.com/" style="fill-rule:evenodd;clip-rule:evenodd;stroke-linejoin:round;stroke-miterlimit:2;"><rect id="Artboard1" x="0" y="0" width="129.5" height="129.5" style="fill:none;"/><path d="M21.017,66.208c-0.71,5.07 -5.069,8.976 -10.333,8.976c-5.759,0 -10.434,-4.675 -10.434,-10.434c-0,-5.759 4.675,-10.434 10.434,-10.434c5.264,-0 9.623,3.906 10.333,8.976l67.349,0l-8.029,-8.028l3.229,-3.23l12.716,12.716l-12.716,12.716l-3.229,-3.23l8.029,-8.028l-67.349,-0Zm-10.333,-8.439c-3.853,-0 -6.981,3.128 -6.981,6.981c-0,3.853 3.128,6.981 6.981,6.981c3.853,0 6.981,-3.128 6.981,-6.981c0,-3.853 -3.128,-6.981 -6.981,-6.981Z"/><circle cx="10.684" cy="64.75" r="6.981" style="fill:#e30127;"/><circle cx="118.816" cy="64.75" r="10.434"/></svg>