<?xml version="1.0" encoding="UTF-8" standalone="no"?><!DOCTYPE svg PUBLIC "-//W3C//DTD SVG 1.1//EN" "http://www.w3.org/Graphics/SVG/1.1/DTD/svg11.dtd"><svg width="100%" height="100%" viewBox="0 0 130 130" version="1.1" xmlns="http://www.w3.org/2000/svg" xmlns:xlink="http://www.w3.org/1999/xlink" xml:space="preserve" xmlns:serif="http://www.serif.com/" style="fill-rule:evenodd;clip-rule:evenodd;stroke-linejoin:round;stroke-miterlimit:2;"><rect id="Artboard1" x="0" y="0" width="129.5" height="129.5" style="fill:none;"/><path d="M44.645,49.686c0.132,0.135 0.241,0.399 0.241,0.587l0,1.902c0,0.191 -0.154,0.345 -0.344,0.345l-1.52,0c-0.191,0 -0.345,-0.154 -0.345,-0.345l-0.001,-1.109c0,-0.189 -0.11,-0.452 -0.244,-0.586l-0.314,-0.311c-0.134,-0.134 -0.399,-0.243 -0.588,-0.243l-4.43,-0c-0.188,-0 -0.46,0.103 -0.601,0.229l-0.157,0.139c-0.142,0.126 -0.258,0.383 -0.258,0.573l0,8.824c0,0.189 0.11,0.453 0.245,0.586l0.391,0.388c0.134,0.134 0.398,0.243 0.587,0.243l4.089,0c0.188,0 0.449,-0.112 0.58,-0.25l0.412,-0.433c0.13,-0.138 0.236,-0.405 0.235,-0.594l-0.012,-2.063c-0.001,-0.189 -0.157,-0.344 -0.346,-0.344l-1.915,0c-0.189,0 -0.344,-0.156 -0.344,-0.344l0,-1.547c0,-0.19 0.155,-0.345 0.344,-0.345l4.192,0c0.19,0 0.344,0.155 0.344,0.345l0,5.157c0,0.189 -0.109,0.453 -0.243,0.587l-1.747,1.748c-0.134,0.135 -0.399,0.244 -0.588,0.244l-6.012,0c-0.189,0 -0.454,-0.109 -0.589,-0.241l-1.649,-1.616c-0.135,-0.133 -0.246,-0.395 -0.246,-0.586l0,-10.421c0,-0.189 0.111,-0.452 0.246,-0.585l1.787,-1.753c0.134,-0.132 0.4,-0.24 0.589,-0.24l5.831,-0c0.189,-0 0.452,0.109 0.586,0.244l1.794,1.815m-42.573,-2.059l-1.478,-0c-0.189,-0 -0.344,0.154 -0.344,0.343l0,14.755c0,0.188 0.155,0.344 0.344,0.344l1.478,0c0.19,0 0.344,-0.156 0.344,-0.344l0,-14.755c0,-0.189 -0.154,-0.343 -0.344,-0.343m21.315,-0l-1.546,-0c-0.189,-0 -0.343,0.154 -0.343,0.343l0.013,10.444c0,0.189 -0.077,0.21 -0.172,0.047l-6.109,-10.51c-0.096,-0.164 -0.328,-0.3 -0.517,-0.302l-1.68,-0.019c-0.189,-0.002 -0.344,0.151 -0.344,0.34l0,14.755c0,0.188 0.155,0.344 0.344,0.344l1.547,0c0.189,0 0.344,-0.156 0.344,-0.344l-0,-10.244c-0,-0.189 0.078,-0.21 0.174,-0.046l6.086,10.337c0.096,0.164 0.329,0.297 0.519,0.297l1.684,0c0.189,0 0.344,-0.156 0.344,-0.344l0,-14.755c0,-0.189 -0.155,-0.343 -0.344,-0.343m82.777,0.244c-0.133,-0.135 -0.397,-0.244 -0.586,-0.244l-5.834,-0c-0.189,-0 -0.453,0.109 -0.586,0.244l-1.797,1.815c-0.133,0.135 -0.241,0.399 -0.241,0.587l-0,3.578c-0,0.19 0.106,0.455 0.238,0.593l1.735,1.808c0.131,0.136 0.393,0.247 0.582,0.247l5.103,-0c0.189,-0 0.459,0.105 0.599,0.231l0.306,0.277c0.14,0.127 0.255,0.385 0.255,0.574l-0,2.239c-0,0.19 -0.099,0.463 -0.219,0.61l-0.177,0.213c-0.12,0.145 -0.373,0.265 -0.562,0.265l-4.499,0c-0.189,0 -0.454,-0.109 -0.589,-0.243l-0.31,-0.307c-0.134,-0.132 -0.244,-0.396 -0.246,-0.586l-0.004,-0.701c-0,-0.189 -0.156,-0.343 -0.345,-0.343l-1.524,-0c-0.189,-0 -0.343,0.154 -0.343,0.343l-0,1.488c-0,0.189 0.111,0.451 0.246,0.584l1.718,1.685c0.136,0.132 0.402,0.241 0.591,0.241l5.972,0c0.189,0 0.453,-0.111 0.586,-0.244l1.659,-1.679c0.133,-0.133 0.242,-0.398 0.242,-0.587l-0,-3.786c-0,-0.19 -0.111,-0.452 -0.246,-0.584l-1.719,-1.68c-0.135,-0.134 -0.4,-0.242 -0.59,-0.242l-5.17,0c-0.188,0 -0.443,-0.118 -0.566,-0.262l-0.295,-0.346c-0.122,-0.144 -0.222,-0.417 -0.222,-0.605l-0,-2.051c-0,-0.189 0.109,-0.452 0.244,-0.586l0.253,-0.248c0.134,-0.134 0.399,-0.243 0.588,-0.243l4.433,-0c0.189,-0 0.459,0.105 0.599,0.231l0.293,0.265c0.139,0.127 0.254,0.386 0.254,0.575l0,0.697c0.001,0.189 0.156,0.343 0.345,0.343l1.455,0c0.189,0 0.344,-0.154 0.344,-0.343l-0,-1.489c-0,-0.189 -0.109,-0.453 -0.242,-0.588l-1.728,-1.746m14.522,2.546l0.252,-0.248c0.134,-0.134 0.4,-0.243 0.589,-0.243l4.433,-0c0.189,-0 0.458,0.105 0.598,0.231l0.293,0.265c0.14,0.127 0.255,0.386 0.255,0.575l0.001,0.697c-0,0.189 0.154,0.343 0.344,0.343l1.454,0c0.19,0 0.345,-0.154 0.345,-0.343l0,-1.489c0,-0.189 -0.109,-0.453 -0.243,-0.588l-1.726,-1.746c-0.134,-0.135 -0.397,-0.244 -0.586,-0.244l-5.835,-0c-0.189,-0 -0.452,0.109 -0.586,0.244l-1.797,1.815c-0.133,0.135 -0.242,0.399 -0.242,0.587l-0,3.578c-0,0.19 0.108,0.455 0.238,0.593l1.736,1.808c0.131,0.136 0.394,0.247 0.582,0.247l5.102,-0c0.19,-0 0.459,0.105 0.599,0.231l0.307,0.277c0.14,0.127 0.255,0.385 0.255,0.574l-0,2.239c-0,0.19 -0.098,0.463 -0.219,0.61l-0.176,0.213c-0.121,0.145 -0.374,0.265 -0.564,0.265l-4.499,0c-0.189,0 -0.453,-0.109 -0.587,-0.243l-0.31,-0.307c-0.135,-0.132 -0.246,-0.396 -0.247,-0.586l-0.004,-0.701c-0.001,-0.189 -0.156,-0.343 -0.345,-0.343l-1.524,-0c-0.188,-0 -0.344,0.154 -0.344,0.343l-0,1.488c-0,0.189 0.111,0.451 0.245,0.584l1.721,1.685c0.135,0.132 0.4,0.241 0.59,0.241l5.972,0c0.19,0 0.453,-0.111 0.586,-0.244l1.658,-1.679c0.134,-0.133 0.243,-0.398 0.243,-0.587l0,-3.786c0,-0.19 -0.111,-0.452 -0.247,-0.584l-1.718,-1.68c-0.135,-0.134 -0.401,-0.242 -0.59,-0.242l-5.169,0c-0.189,0 -0.445,-0.118 -0.567,-0.262l-0.295,-0.346c-0.123,-0.144 -0.223,-0.417 -0.223,-0.605l-0,-2.051c-0,-0.189 0.111,-0.452 0.245,-0.586m-54.973,6.509c0.134,0.135 0.243,0.399 0.243,0.589l0,5.21c0,0.188 -0.154,0.344 -0.344,0.344l-1.563,0c-0.19,0 -0.344,-0.156 -0.344,-0.344l0,-4.494c0,-0.188 -0.112,-0.451 -0.248,-0.583l-0.303,-0.292c-0.137,-0.13 -0.404,-0.238 -0.592,-0.238l-5.082,-0c-0.189,-0 -0.344,0.154 -0.344,0.343l0,5.264c0,0.188 -0.155,0.344 -0.344,0.344l-1.513,0c-0.188,0 -0.343,-0.156 -0.343,-0.344l0,-14.755c0,-0.189 0.155,-0.343 0.343,-0.343l8.016,-0c0.19,-0 0.455,0.108 0.589,0.241l1.78,1.752c0.135,0.133 0.244,0.396 0.244,0.585l0,4.403c0,0.188 -0.11,0.452 -0.246,0.584l-0.385,0.376c-0.135,0.134 -0.246,0.338 -0.246,0.456c-0,0.117 0.108,0.324 0.242,0.458l0.44,0.444m-1.989,-5.914c-0,-0.189 -0.11,-0.452 -0.245,-0.586l-0.258,-0.257c-0.135,-0.134 -0.399,-0.243 -0.589,-0.243l-5.152,0.004c-0.189,0 -0.344,0.155 -0.344,0.343l0,4.335c0,0.188 0.155,0.344 0.344,0.344l4.95,0.003c0.189,0 0.454,-0.109 0.589,-0.241l0.459,-0.45c0.135,-0.131 0.246,-0.395 0.246,-0.584l-0,-2.668m22.977,-3.385l-10.365,-0c-0.189,-0 -0.343,0.154 -0.343,0.343l-0,14.755c-0,0.188 0.154,0.344 0.343,0.344l10.365,0c0.189,0 0.344,-0.156 0.344,-0.344l-0,-1.478c-0,-0.19 -0.155,-0.345 -0.344,-0.345l-8.129,0c-0.189,0 -0.344,-0.154 -0.344,-0.343l0,-3.715c0,-0.191 0.155,-0.345 0.344,-0.345l6.124,-0c0.19,-0 0.344,-0.154 0.344,-0.343l0,-1.548c0,-0.189 -0.154,-0.344 -0.344,-0.344l-6.124,0c-0.189,0 -0.344,-0.154 -0.344,-0.344l0,-3.715c0,-0.189 0.155,-0.344 0.344,-0.344l8.129,0c0.189,0 0.344,-0.154 0.344,-0.344l-0,-1.547c-0,-0.189 -0.155,-0.343 -0.344,-0.343Z" style="fill:#fff;fill-rule:nonzero;"/><path d="M28.664,73.541l-6.269,-0l0,8.332l1.82,0l0,-2.669l4.449,0c1.136,0 2.064,-0.929 2.064,-2.064l-0,-1.536c-0,-1.134 -0.928,-2.063 -2.064,-2.063m0.163,3.438c-0,0.379 -0.31,0.687 -0.688,0.687l-3.924,0l0,-2.588l3.924,0c0.378,0 0.688,0.309 0.688,0.688l-0,1.213m20.387,-3.438l-6.302,-0l0,8.332l1.752,0l0,-2.747l3.968,0c0.453,0 0.825,0.369 0.825,0.821l0,1.926l1.79,0l0,-2.224c0,-0.653 -0.467,-1.203 -1.086,-1.337c0.65,-0.196 1.117,-0.698 1.117,-1.284l-0,-1.722c-0,-0.971 -0.929,-1.765 -2.064,-1.765m0.213,3.33c0,0.377 -0.309,0.684 -0.688,0.684l-4.075,0l0,-2.475l4.075,-0c0.379,-0 0.688,0.308 0.688,0.685l0,1.106m14.471,-3.33l1.791,-0l-0,8.332l-1.791,0l0,-8.332m24.7,0.68l0.555,7.448c0.007,0.113 -0.078,0.204 -0.192,0.204l-1.361,0c-0.114,0 -0.213,-0.091 -0.222,-0.204l-0.415,-5.584c-0.027,-0.373 -0.163,-0.394 -0.301,-0.045l-2.161,5.453c-0.084,0.209 -0.337,0.38 -0.564,0.38l-0.76,0c-0.227,0 -0.481,-0.171 -0.565,-0.38l-2.161,-5.453c-0.138,-0.349 -0.274,-0.328 -0.301,0.045l-0.415,5.584c-0.009,0.113 -0.109,0.204 -0.222,0.204l-1.361,0c-0.114,0 -0.2,-0.091 -0.191,-0.204l0.553,-7.448c0.028,-0.375 0.361,-0.68 0.738,-0.68l1.638,-0c0.228,-0 0.479,0.172 0.559,0.382l1.962,5.161c0.08,0.21 0.211,0.21 0.291,0l1.962,-5.161c0.081,-0.21 0.331,-0.382 0.559,-0.382l1.637,-0c0.378,-0 0.711,0.305 0.738,0.68m14.59,0.826l-0,1.893l4.763,-0l-0,1.299l-4.763,-0l-0,2.127l5.582,-0l-0,1.507l-7.373,0l-0,-8.332l7.373,-0l-0,1.506l-5.582,-0Z" style="fill:#fff;fill-rule:nonzero;"/></svg>