<?xml version="1.0" encoding="UTF-8" standalone="no"?><!DOCTYPE svg PUBLIC "-//W3C//DTD SVG 1.1//EN" "http://www.w3.org/Graphics/SVG/1.1/DTD/svg11.dtd"><svg width="100%" height="100%" viewBox="0 0 130 130" version="1.1" xmlns="http://www.w3.org/2000/svg" xmlns:xlink="http://www.w3.org/1999/xlink" xml:space="preserve" xmlns:serif="http://www.serif.com/" style="fill-rule:evenodd;clip-rule:evenodd;stroke-linejoin:round;stroke-miterlimit:2;"><rect id="Artboard1" x="0" y="0" width="129.5" height="129.5" style="fill:none;"/><path d="M118.712,30.493l-51.276,-29.603c-1.476,-0.853 -3.895,-0.853 -5.372,-0l-51.275,29.603c-1.478,0.853 -2.686,2.947 -2.686,4.654l-0,59.206c-0,1.706 1.208,3.801 2.686,4.653l51.275,29.605c1.477,0.852 3.896,0.852 5.372,0l51.276,-29.605c1.477,-0.852 2.685,-2.947 2.685,-4.653l0,-59.206c0,-1.707 -1.208,-3.801 -2.685,-4.654m-53.962,93.489l-48.499,-28.001l21.12,-12.194l-2.797,-4.844l-21.121,12.193l-0,-56.002l48.5,-28.002l0,24.388l5.594,0l-0,-24.388l48.5,28.002l-0,56.002l-21.12,-12.193l-2.798,4.844l21.12,12.195l-48.499,28m-40.155,-82.562l40.156,69.548l40.155,-69.548l-80.311,0m35.282,23.621c1.231,0.71 2.238,2.456 2.238,3.878l0,26.54l-25.226,-43.691l22.988,13.273m-20.528,-18.148l50.802,-0l-23.162,13.373c-1.231,0.711 -3.247,0.711 -4.477,-0l-23.163,-13.373m28.036,22.024c-0,-1.422 1.008,-3.167 2.239,-3.878l22.988,-13.272l-25.226,43.692l-0.001,-26.542Z" style="fill:#fff;fill-rule:nonzero;"/></svg>