<?xml version="1.0" encoding="UTF-8" standalone="no"?><!DOCTYPE svg PUBLIC "-//W3C//DTD SVG 1.1//EN" "http://www.w3.org/Graphics/SVG/1.1/DTD/svg11.dtd"><svg width="100%" height="100%" viewBox="0 0 130 130" version="1.1" xmlns="http://www.w3.org/2000/svg" xmlns:xlink="http://www.w3.org/1999/xlink" xml:space="preserve" xmlns:serif="http://www.serif.com/" style="fill-rule:evenodd;clip-rule:evenodd;stroke-linejoin:round;stroke-miterlimit:2;"><rect id="Artboard1" x="0" y="0" width="129.5" height="129.5" style="fill:none;"/><path d="M12.004,46.355c-3.956,-1.321 -6.811,-5.057 -6.811,-9.455c-0,-5.5 4.465,-9.966 9.965,-9.966c2.54,0 4.859,0.952 6.62,2.519l33.129,-17.923c-0.081,-0.509 -0.123,-1.032 -0.123,-1.564c0,-5.501 4.466,-9.966 9.966,-9.966c5.5,0 9.966,4.465 9.966,9.966c-0,0.21 -0.007,0.418 -0.02,0.625l33.939,18.749c1.677,-1.281 3.771,-2.043 6.042,-2.043c5.5,0 9.966,4.466 9.966,9.966c-0,5.5 -4.466,9.966 -9.966,9.966c-5.5,-0 -9.965,-4.466 -9.965,-9.966c-0,-0.929 0.127,-1.829 0.365,-2.682l-32.781,-18.109c-1.828,2.118 -4.532,3.459 -7.546,3.459c-2.691,0 -5.135,-1.069 -6.929,-2.805l-32.894,17.795c0.129,0.64 0.197,1.301 0.197,1.979c-0,4.398 -2.855,8.134 -6.812,9.455l0,36.79c3.957,1.321 6.812,5.057 6.812,9.455c-0,0.713 -0.075,1.408 -0.217,2.078l32.45,17.926c1.824,-2.017 4.462,-3.285 7.393,-3.285c3.038,-0 5.761,1.362 7.59,3.509l32.773,-17.729c-0.261,-0.891 -0.401,-1.833 -0.401,-2.807c-0,-0.415 0.025,-0.823 0.074,-1.225l-33.708,-18.621c-1.721,1.418 -3.926,2.27 -6.328,2.27c-5.5,-0 -9.966,-4.466 -9.966,-9.966c0,-5.5 4.466,-9.966 9.966,-9.966c5.5,0 9.966,4.466 9.966,9.966c-0,0.808 -0.097,1.593 -0.278,2.345l33.075,18.272c1.813,-1.874 4.353,-3.041 7.164,-3.041c5.5,0 9.966,4.466 9.966,9.966c-0,5.5 -4.466,9.966 -9.966,9.966c-2.219,-0 -4.269,-0.727 -5.926,-1.955l-34.051,18.42c0.01,0.186 0.016,0.373 0.016,0.561c-0,5.501 -4.466,9.966 -9.966,9.966c-5.5,0 -9.966,-4.465 -9.966,-9.966c0,-0.294 0.013,-0.585 0.038,-0.873l-33.12,-18.297c-1.751,1.527 -4.04,2.452 -6.544,2.452c-5.5,-0 -9.965,-4.466 -9.965,-9.966c-0,-4.398 2.855,-8.134 6.811,-9.455l0,-36.79Z"/></svg>