<?xml version="1.0" encoding="UTF-8" standalone="no"?><!DOCTYPE svg PUBLIC "-//W3C//DTD SVG 1.1//EN" "http://www.w3.org/Graphics/SVG/1.1/DTD/svg11.dtd"><svg width="100%" height="100%" viewBox="0 0 130 130" version="1.1" xmlns="http://www.w3.org/2000/svg" xmlns:xlink="http://www.w3.org/1999/xlink" xml:space="preserve" xmlns:serif="http://www.serif.com/" style="fill-rule:evenodd;clip-rule:evenodd;stroke-linejoin:round;stroke-miterlimit:2;"><rect id="Artboard1" x="0" y="0" width="129.5" height="129.5" style="fill:none;"/><path d="M103.288,59.558l-77.079,0c-7.316,0 -13.267,5.953 -13.267,13.271l-0,43.151c-0,7.317 5.951,13.27 13.267,13.27l77.079,0c7.317,0 13.27,-5.953 13.27,-13.27l0,-43.151c0,-7.318 -5.953,-13.271 -13.27,-13.271m8.214,56.422c-0,4.532 -3.685,8.217 -8.214,8.217l-77.079,0c-4.53,0 -8.216,-3.685 -8.216,-8.217l0,-43.151c0,-4.531 3.686,-8.216 8.216,-8.216l77.079,-0c4.529,-0 8.214,3.685 8.214,8.216l-0,43.151m-83.191,-62.924l-5.055,0l0,-11.326c0,-22.869 18.608,-41.48 41.479,-41.48c22.87,0 41.477,18.611 41.477,41.48l0,11.326l-5.053,0l0,-11.326c0,-20.083 -16.341,-36.424 -36.424,-36.424c-20.085,0 -36.424,16.341 -36.424,36.424l-0,11.326m43.898,29.662c0,3.289 -2.098,6.08 -5.024,7.13l-0,23.779c-0,1.396 -1.133,2.527 -2.528,2.527c-1.394,-0 -2.525,-1.131 -2.525,-2.527l-0,-23.759c-2.96,-1.034 -5.083,-3.839 -5.083,-7.15c0,-4.185 3.394,-7.577 7.581,-7.577c4.186,-0 7.579,3.392 7.579,7.577Z" style="fill:#fff;fill-rule:nonzero;"/></svg>