<?xml version="1.0" encoding="UTF-8" standalone="no"?><!DOCTYPE svg PUBLIC "-//W3C//DTD SVG 1.1//EN" "http://www.w3.org/Graphics/SVG/1.1/DTD/svg11.dtd"><svg width="100%" height="100%" viewBox="0 0 130 130" version="1.1" xmlns="http://www.w3.org/2000/svg" xmlns:xlink="http://www.w3.org/1999/xlink" xml:space="preserve" xmlns:serif="http://www.serif.com/" style="fill-rule:evenodd;clip-rule:evenodd;stroke-linejoin:round;stroke-miterlimit:2;"><rect id="Artboard1" x="0" y="0" width="129.5" height="129.5" style="fill:none;"/><path d="M12.566,106.52c6.101,0.091 10.979,5.119 10.888,11.219c-0.092,6.101 -5.119,10.979 -11.22,10.888c-6.1,-0.092 -10.979,-5.119 -10.887,-11.22c0.092,-6.1 5.119,-10.979 11.219,-10.887Zm51.103,-74.367c0.523,-17.57 15.084,-31.542 32.719,-31.277c17.798,0.267 32.03,14.933 31.763,32.73c-0.252,16.76 -13.272,30.358 -29.652,31.663l3.226,-8.665c10.403,-2.576 18.196,-11.903 18.364,-23.119c0.2,-13.348 -10.474,-24.347 -23.822,-24.548c-11.964,-0.179 -22.042,8.378 -24.147,19.767l-8.451,3.449Zm-61.057,45.664l26.963,-12.263l5.752,2.223l-19.523,8.718l29.248,7.98l6.99,28.269l11.694,-24.1l-4.36,-18.487l33.588,-33.589l-41.248,91.071l-10.412,-39.41l-38.692,-10.412Z"/></svg>